<svg xmlns="http://www.w3.org/2000/svg" width="14.142" height="28.247" viewBox="0 0 14.142 28.247">
  <path id="attachement-icon" d="M-1458.933,239.094c-.152.118-.3.236-.457.354a6.878,6.878,0,0,1-2.883,1.312,6.95,6.95,0,0,1-5.467-1.1,6.91,6.91,0,0,1-3.026-4.8,1.472,1.472,0,0,1-.016-.226q0-8.3,0-16.609a4.871,4.871,0,0,1,1.078-3.077,6,6,0,0,1,7.169-1.75,5.113,5.113,0,0,1,2.8,3.295,6.249,6.249,0,0,1,.271,1.89q0,7.692,0,15.384a3.608,3.608,0,0,1-.625,1.977,5.424,5.424,0,0,1-2.266,2.015,3.477,3.477,0,0,1-2.874.03,4.165,4.165,0,0,1-2.719-3.971q-.012-7,0-14.009c0-.021,0-.042,0-.052h1.408c0,.026,0,.07,0,.115q0,6.954,0,13.908a3.518,3.518,0,0,0,.335,1.638,2.187,2.187,0,0,0,1.606,1.179,2.905,2.905,0,0,0,2.25-.32,2.969,2.969,0,0,0,1.464-2.578q.009-7.648,0-15.3a4.387,4.387,0,0,0-1.337-3.178,3.774,3.774,0,0,0-3.328-1.1,4.867,4.867,0,0,0-2.093.7,3.692,3.692,0,0,0-1.573,2.259,4.854,4.854,0,0,0-.15,1.223q0,7.787,0,15.574a5.173,5.173,0,0,0,.929,2.909,6.031,6.031,0,0,0,3.025,2.4,4.9,4.9,0,0,0,4.173-.344,5.972,5.972,0,0,0,3.04-3.832,4.881,4.881,0,0,0,.147-1.262q0-8.3,0-16.6c0-.075-.009-.151-.014-.219l1.426.011c0,.014,0,.059,0,.1q0,8.784,0,17.568a4.505,4.505,0,0,1-.276,1.366,6.881,6.881,0,0,1-1.383,2.448.785.785,0,0,0-.059.09Z" transform="translate(1470.782 -212.665)" fill="#8e8e8e" fill-rule="evenodd"/>
</svg>
