<svg xmlns="http://www.w3.org/2000/svg" width="25.102" height="27.846" viewBox="0 0 25.102 27.846">
  <path id="Attachments-active-icon" d="M23.469,17.162,21.41,15.1,12.142,5.835a4.369,4.369,0,0,0-6.178,6.178l9.267,9.27A.971.971,0,1,0,16.6,19.91L7.337,10.64a2.427,2.427,0,0,1,3.432-3.432l9.27,9.267L22.1,18.535a4.37,4.37,0,1,1-6.181,6.179L14.2,23l-9.61-9.61L3.9,12.7a6.311,6.311,0,0,1,8.924-8.924l10.3,10.3A.971.971,0,1,0,24.5,12.7L14.2,2.4a8.252,8.252,0,0,0-11.67,11.67l10.3,10.3,1.718,1.716a6.311,6.311,0,0,0,8.922-8.924Zm0,0" transform="translate(-0.128 0.001)" fill="#2d7cbf"/>
</svg>
