<svg xmlns="http://www.w3.org/2000/svg" width="21.242" height="28.137" viewBox="0 0 21.242 28.137">
  <g id="Comments-active-icon" transform="translate(944.107 -328.855)">
    <path id="Path_317" data-name="Path 317" d="M-933.333,603.424a35.229,35.229,0,0,1-7.152-.714,8.992,8.992,0,0,1-2.43-.864,4.6,4.6,0,0,1-.626-.432.856.856,0,0,1-.316-.7,10.635,10.635,0,0,1,8.292-10.452A10.362,10.362,0,0,1-923.5,597.87a10.773,10.773,0,0,1,.381,2.856.869.869,0,0,1-.66.865.832.832,0,0,1-.96-.392,1.337,1.337,0,0,1-.134-.572,8.976,8.976,0,0,0-2.071-5.678,8.274,8.274,0,0,0-6.538-3.144,8.615,8.615,0,0,0-8.039,5.714,9.34,9.34,0,0,0-.555,2.547.318.318,0,0,0,.23.367,12.514,12.514,0,0,0,3.017.809,35.358,35.358,0,0,0,5.409.416c.917.009,1.836-.059,2.753-.116a.915.915,0,0,1,1.014.74.836.836,0,0,1-.743.993c-.85.081-1.706.1-2.56.147C-933.078,603.429-933.206,603.424-933.333,603.424Z" transform="translate(0 -246.684)" fill="#2d7cbf" stroke="#2d7cbf" stroke-width="0.5" fill-rule="evenodd"/>
    <path id="Path_318" data-name="Path 318" d="M-865.554,342a6.432,6.432,0,0,1-6.429-6.522,6.44,6.44,0,0,1,6.53-6.368,6.477,6.477,0,0,1,6.371,6.592A6.48,6.48,0,0,1-865.554,342Zm.016-1.75a4.716,4.716,0,0,0,4.7-4.659,4.723,4.723,0,0,0-4.685-4.733,4.726,4.726,0,0,0-4.713,4.678A4.714,4.714,0,0,0-865.537,340.246Z" transform="translate(-67.948)" fill="#2d7cbf" stroke="#2d7cbf" stroke-width="0.5" fill-rule="evenodd"/>
  </g>
</svg>
