<svg xmlns="http://www.w3.org/2000/svg" width="42.989" height="54.188" viewBox="0 0 42.989 54.188"><defs><style>.a{fill:#e1e6e9;}.b{fill:#27a2db;}.c{fill:#ebf0f3;}.d{fill:#2d93ba;}.e{fill:#d5d6db;}</style></defs><g transform="translate(-48.39)"><path class="a" d="M106.672,0H78.655a2.167,2.167,0,0,0-2.167,2.168V52.021a2.168,2.168,0,0,0,2.168,2.168h35.4a2.168,2.168,0,0,0,2.168-2.168V9.554Z" transform="translate(-24.847)"/><rect class="b" width="42.989" height="14.846" transform="translate(48.39 29.862)"/><g transform="translate(57.06 32.581)"><path class="c" d="M130.191,284.656a4.234,4.234,0,0,1,1.312,3.307,4.451,4.451,0,0,1-1.273,3.352,5.412,5.412,0,0,1-3.9,1.235h-3.015v-9.084h3.119A5.4,5.4,0,0,1,130.191,284.656ZM129.957,288q0-3.119-3.573-3.119H124.85v6.225h1.7a3.664,3.664,0,0,0,2.528-.786A2.954,2.954,0,0,0,129.957,288Z" transform="translate(-123.317 -283.247)"/><path class="c" d="M214.268,289.612a4.98,4.98,0,0,1-6.808,0,4.768,4.768,0,0,1,0-6.705,4.982,4.982,0,0,1,6.808,0,4.768,4.768,0,0,1,0,6.705Zm-1.123-5.685a3.187,3.187,0,0,0-4.562,0,3.394,3.394,0,0,0,0,4.665,3.186,3.186,0,0,0,4.562,0,3.394,3.394,0,0,0,0-4.665Z" transform="translate(-196.505 -281.562)"/><path class="c" d="M305.146,289.475a3.211,3.211,0,0,0,1.364-.266,4.724,4.724,0,0,0,1.2-.851l.987,1.014a4.545,4.545,0,0,1-3.5,1.6,4.7,4.7,0,0,1-3.418-1.326,4.817,4.817,0,0,1,.026-6.732,4.8,4.8,0,0,1,3.5-1.351,4.571,4.571,0,0,1,3.528,1.559l-.974,1.066a4.268,4.268,0,0,0-1.229-.871,3.439,3.439,0,0,0-1.358-.247,3.228,3.228,0,0,0-2.313.89,3,3,0,0,0-.936,2.274,3.138,3.138,0,0,0,.93,2.313A3.01,3.01,0,0,0,305.146,289.475Z" transform="translate(-279.923 -281.562)"/></g><path class="d" d="M48.39,386.364l3.251,3.023v-3.023Z" transform="translate(0 -341.656)"/><path class="c" d="M337.335,9.554h9.554L337.335,0Z" transform="translate(-255.51)"/><path class="e" d="M353.221,82.567l7.716,4.477V82.567Z" transform="translate(-269.558 -73.013)"/></g></svg>