<svg xmlns="http://www.w3.org/2000/svg" width="17.931" height="15.417" viewBox="0 0 17.931 15.417">
  <g id="Download-icon" transform="translate(2962.48 1076.527)">
    <path id="Path_319" data-name="Path 319" d="M-2953.512-673.825h3.573l4.612,0a.745.745,0,0,1,.777.765.762.762,0,0,1-.775.813q-3.307,0-6.615,0-4.13,0-8.26,0c-.482,0-.964-.013-1.446,0a.8.8,0,0,1-.813-1.016.752.752,0,0,1,.722-.566h8.223Z" transform="translate(0 -388.865)" fill="#2d7cbf" fill-rule="evenodd"/>
    <path id="Path_320" data-name="Path 320" d="M-2876.736-1069.422a1.177,1.177,0,0,0-.371-.071c-.762-.006-1.525,0-2.287,0h-.141v-.15q0-2.776,0-5.551a1.817,1.817,0,0,0-.048-.44,1.149,1.149,0,0,0-1.129-.891c-.046,0-4.866.011-4.9.02a1.2,1.2,0,0,0-.927,1.162c0,.56,0,1.12,0,1.68q0,1.984,0,3.969v.2h-.153c-.758,0-1.517,0-2.275,0a1.223,1.223,0,0,0-.371.069.205.205,0,0,0-.125.309,1.127,1.127,0,0,0,.239.323c.461.4.932.8,1.4,1.193q.959.816,1.917,1.633c.652.554,1.309,1.1,1.956,1.661a1.428,1.428,0,0,0,1.8.032q.611-.51,1.217-1.026.94-.8,1.877-1.6c.742-.632,1.487-1.261,2.225-1.9a1.085,1.085,0,0,0,.234-.325A.2.2,0,0,0-2876.736-1069.422Z" transform="translate(-70.47)" fill="#2d7cbf" fill-rule="evenodd"/>
  </g>
</svg>
