<svg xmlns="http://www.w3.org/2000/svg" width="13.36" height="12.8" viewBox="0 0 13.36 12.8"><defs><style>.a{fill:#f9cb00;}</style></defs><path class="a" d="M13.07,6.848a.958.958,0,0,0-.531-1.634L9.3,4.743a.423.423,0,0,1-.318-.231L7.539,1.581a.958.958,0,0,0-1.718,0L4.374,4.512a.423.423,0,0,1-.319.231L.82,5.214A.958.958,0,0,0,.289,6.848L2.63,9.129a.424.424,0,0,1,.122.375L2.2,12.726a.938.938,0,0,0,.209.777.968.968,0,0,0,1.181.233l2.893-1.521a.433.433,0,0,1,.394,0L9.77,13.735a.948.948,0,0,0,.446.112.961.961,0,0,0,.735-.345.938.938,0,0,0,.209-.777L10.607,9.5a.423.423,0,0,1,.122-.375Z" transform="translate(0.001 -1.047)"/></svg>