<svg xmlns="http://www.w3.org/2000/svg" width="13.906" height="14.095" viewBox="0 0 13.906 14.095"><defs><style>.a{fill:#abb0b5;}</style></defs><path class="a" d="M15.293,6.893a.465.465,0,0,1-.658,0L8.812,1.07a.475.475,0,0,0-.671,0L2.318,6.893a.465.465,0,0,1-.658-.658L7.483.411a1.407,1.407,0,0,1,1.987,0l5.823,5.823A.466.466,0,0,1,15.293,6.893ZM8.469,2.214a.628.628,0,0,0-.431.169L2.809,7.59v5.462A1.089,1.089,0,0,0,3.9,14.1H6.1v-5.4a.723.723,0,0,1,.729-.677h3.3a.635.635,0,0,1,.626.677v5.4h2.3a1,1,0,0,0,.992-1.044V7.589L8.86,2.383A.536.536,0,0,0,8.469,2.214Z" transform="translate(-1.523 0)"/></svg>