<svg xmlns="http://www.w3.org/2000/svg" width="10.683" height="18.866" viewBox="0 0 10.683 18.866"><defs><style>.a{fill:#abb0b5;}</style></defs><g transform="translate(-5.951)"><path class="a" d="M15.262,0H7.324A1.373,1.373,0,0,0,5.951,1.374V17.493a1.372,1.372,0,0,0,1.373,1.373h7.938a1.373,1.373,0,0,0,1.373-1.373V1.374A1.374,1.374,0,0,0,15.262,0ZM9.334.835h3.919c.1,0,.179.148.179.331s-.08.331-.179.331H9.334c-.1,0-.179-.148-.179-.331S9.234.835,9.334.835Zm1.959,16.675a.877.877,0,1,1,.875-.877A.878.878,0,0,1,11.293,17.509Zm4.313-3H6.98V2.319h8.626V14.506Z"/></g></svg>