<svg xmlns="http://www.w3.org/2000/svg" width="24" height="24" viewBox="0 0 24 24">
  <path id="Rating-start" d="M23.937,9.561a1.286,1.286,0,0,0-1.1-.915l-6.927-.656L13.173,1.3a1.255,1.255,0,0,0-2.346,0L8.088,7.989,1.16,8.645a1.288,1.288,0,0,0-1.1.915,1.367,1.367,0,0,0,.373,1.414l5.236,4.792-1.544,7.1a1.36,1.36,0,0,0,.5,1.374,1.224,1.224,0,0,0,1.4.064L12,20.575,17.973,24.3a1.227,1.227,0,0,0,1.4-.064,1.361,1.361,0,0,0,.5-1.374l-1.544-7.1,5.236-4.791a1.369,1.369,0,0,0,.374-1.415Zm0,0" transform="translate(0 -0.491)" fill="#d4d4d4"/>
</svg>
