<?xml version="1.0" encoding="utf-8"?>
<!-- Generator: Adobe Illustrator 23.0.5, SVG Export Plug-In . SVG Version: 6.00 Build 0)  -->
<svg version="1.1" id="Layer_1" xmlns="http://www.w3.org/2000/svg" xmlns:xlink="http://www.w3.org/1999/xlink" x="0px" y="0px"
	 viewBox="0 0 199 89.2" style="enable-background:new 0 0 199 89.2;" xml:space="preserve">
<style type="text/css">
	.st0{fill:#FFFFFF;}
</style>
<g id="Saviour-logo" transform="translate(-2.189 0.478)">
	<path id="Path_47" class="st0" d="M21.4,74.2h0.9v6.5h9.1v-6.5h0.9v14.3h-0.9v-7h-9.1v7h-0.9V74.2z M35,83.5v0.1
		c0,0.6,0.1,1.2,0.2,1.7c0.1,0.5,0.4,1,0.7,1.4c0.3,0.4,0.7,0.7,1.2,1c0.5,0.2,1.1,0.4,1.7,0.4c0.9,0,1.8-0.2,2.4-0.8
		c0.6-0.6,1.1-1.4,1.2-2.3h0.8c-0.2,1.1-0.7,2-1.5,2.8c-0.8,0.7-1.9,1-3,1c-0.7,0-1.4-0.1-2-0.4c-0.6-0.3-1-0.6-1.4-1.1
		c-0.4-0.5-0.7-1.1-0.8-1.7c-0.2-0.7-0.3-1.4-0.3-2.1c0-0.7,0.1-1.4,0.3-2.1c0.2-0.6,0.5-1.2,0.9-1.7c0.4-0.5,0.9-0.9,1.5-1.2
		c0.6-0.3,1.3-0.5,2-0.4c0.7,0,1.3,0.1,1.9,0.4c0.5,0.3,1,0.6,1.4,1.1c0.4,0.5,0.7,1,0.8,1.6c0.2,0.6,0.3,1.3,0.3,1.9
		c0,0.1,0,0.1,0,0.2c0,0.1,0,0.2,0,0.2H35z M42.5,82.8c0-0.5-0.1-1.1-0.3-1.6c-0.1-0.5-0.4-0.9-0.7-1.3c-0.3-0.4-0.7-0.7-1.1-0.9
		c-0.5-0.2-1-0.3-1.5-0.3c-0.6,0-1.1,0.1-1.6,0.3c-0.5,0.2-0.9,0.5-1.2,0.9c-0.3,0.4-0.6,0.8-0.7,1.3c-0.2,0.5-0.3,1-0.3,1.6H42.5z
		 M51.9,86.5L51.9,86.5c-0.2,0.3-0.3,0.6-0.6,0.9c-0.2,0.3-0.5,0.5-0.8,0.7c-0.3,0.2-0.7,0.4-1.1,0.5c-0.4,0.1-0.9,0.2-1.4,0.2
		c-0.9,0.1-1.8-0.2-2.5-0.7c-0.6-0.5-1-1.4-0.9-2.2c0-0.5,0.1-1,0.4-1.5c0.2-0.4,0.5-0.7,0.9-0.9c0.4-0.2,0.8-0.4,1.2-0.5
		c0.4-0.1,0.9-0.2,1.3-0.2l1.2-0.1c0.4,0,0.9-0.1,1.3-0.2c0.3-0.1,0.5-0.2,0.7-0.4c0.2-0.2,0.3-0.4,0.3-0.6c0-0.3,0.1-0.6,0.1-0.9
		c0-0.3-0.1-0.5-0.2-0.8c-0.1-0.2-0.3-0.5-0.5-0.6c-0.3-0.2-0.6-0.4-0.9-0.4c-0.4-0.1-0.9-0.2-1.3-0.2c-0.8,0-1.6,0.2-2.2,0.7
		c-0.6,0.5-0.9,1.3-0.9,2.1h-0.8c0-1,0.4-1.9,1.1-2.5c0.8-0.6,1.8-0.9,2.9-0.8c1-0.1,1.9,0.2,2.7,0.7c0.6,0.5,0.9,1.2,0.8,1.9v6
		c0,0.1,0,0.3,0,0.4c0,0.1,0,0.3,0.1,0.4c0,0.1,0.1,0.2,0.2,0.3c0.1,0.1,0.3,0.1,0.4,0.1c0.2,0,0.4,0,0.6-0.1v0.6
		c-0.2,0.1-0.4,0.1-0.6,0.1c-0.2,0-0.5,0-0.7-0.1c-0.2-0.1-0.3-0.2-0.4-0.3c-0.1-0.1-0.2-0.3-0.2-0.5c0-0.2-0.1-0.4,0-0.6L51.9,86.5
		z M51.9,82.7c-0.2,0.2-0.5,0.4-0.9,0.5c-0.4,0.1-0.8,0.1-1.3,0.2l-1.3,0.1c-0.4,0-0.7,0.1-1.1,0.2c-0.4,0.1-0.7,0.2-1,0.4
		c-0.3,0.2-0.5,0.4-0.7,0.7c-0.2,0.4-0.3,0.8-0.3,1.2c0,0.6,0.2,1.3,0.7,1.7c0.6,0.4,1.3,0.6,2,0.6c0.7,0,1.4-0.1,2.1-0.5
		c0.5-0.3,0.9-0.6,1.2-1.1c0.2-0.4,0.4-0.8,0.5-1.2c0.1-0.3,0.1-0.5,0.1-0.8V82.7z M56,74.2v14.3h-0.8V74.2H56z M62.2,78.9H60v7.2
		c0,0.3,0,0.7,0.1,1c0.1,0.2,0.2,0.4,0.4,0.6c0.2,0.1,0.5,0.2,0.7,0.2c0.3,0,0.6,0,1,0v0.7c-0.4,0-0.8,0-1.1,0c-0.3,0-0.7-0.1-1-0.3
		c-0.3-0.2-0.5-0.4-0.7-0.8c-0.2-0.4-0.3-0.9-0.2-1.4v-7.2h-1.9v-0.7h1.9V75H60v3.2h2.2V78.9z M64.4,74.2v6.2h0
		c0.1-0.4,0.3-0.7,0.6-1c0.2-0.3,0.5-0.6,0.9-0.8c0.3-0.2,0.7-0.4,1.1-0.5c0.4-0.1,0.8-0.2,1.2-0.2c0.5,0,1,0.1,1.5,0.2
		c0.4,0.1,0.7,0.3,1,0.6c0.3,0.2,0.5,0.5,0.6,0.8c0.1,0.3,0.3,0.6,0.3,0.9c0.1,0.3,0.1,0.6,0.1,0.9c0,0.3,0,0.5,0,0.8v6.4H71V82
		c0-0.3,0-0.6-0.1-1c0-0.4-0.2-0.8-0.3-1.1c-0.2-0.4-0.5-0.7-0.9-0.9c-0.5-0.3-1.1-0.4-1.6-0.4c-0.5,0-1.1,0.1-1.6,0.3
		c-0.4,0.2-0.8,0.5-1.2,0.9c-0.3,0.4-0.6,0.9-0.7,1.4c-0.2,0.6-0.3,1.1-0.3,1.7v5.6h-0.8V74.2H64.4z M81.7,81.4
		c0-0.4-0.1-0.8-0.3-1.2c-0.2-0.3-0.4-0.6-0.8-0.9c-0.3-0.2-0.7-0.4-1.1-0.5c-0.4-0.1-0.9-0.2-1.3-0.2c-0.6,0-1.2,0.1-1.7,0.4
		c-0.5,0.3-0.9,0.6-1.2,1c-0.3,0.4-0.6,0.9-0.8,1.5c-0.2,0.6-0.3,1.1-0.3,1.7c0,0.6,0.1,1.3,0.2,1.9c0.1,0.6,0.4,1.1,0.7,1.5
		c0.3,0.4,0.8,0.8,1.2,1c0.5,0.3,1.1,0.4,1.7,0.4c0.5,0,0.9-0.1,1.3-0.2c0.4-0.2,0.8-0.4,1.1-0.7c0.3-0.3,0.6-0.6,0.8-1
		c0.2-0.4,0.3-0.8,0.4-1.3h0.8c-0.1,0.6-0.2,1.1-0.5,1.6c-0.2,0.5-0.6,0.9-1,1.2c-0.4,0.3-0.8,0.6-1.3,0.8c-0.5,0.2-1,0.3-1.6,0.3
		c-0.7,0-1.5-0.1-2.2-0.4c-0.6-0.3-1.1-0.7-1.5-1.2c-0.4-0.5-0.7-1.1-0.8-1.8c-0.2-0.7-0.3-1.4-0.3-2.1c0-0.7,0.1-1.4,0.3-2
		c0.2-0.6,0.5-1.2,0.9-1.7c0.4-0.5,0.9-0.9,1.5-1.1c0.6-0.3,1.3-0.4,2-0.4c0.5,0,1.1,0.1,1.6,0.2c0.5,0.1,0.9,0.3,1.3,0.6
		c0.4,0.3,0.7,0.6,0.9,1.1c0.3,0.5,0.4,1,0.4,1.5H81.7z M91.2,86.5L91.2,86.5c-0.2,0.3-0.3,0.6-0.6,0.9c-0.2,0.3-0.5,0.5-0.8,0.7
		c-0.3,0.2-0.7,0.4-1.1,0.5c-0.4,0.1-0.9,0.2-1.4,0.2c-0.9,0.1-1.8-0.2-2.5-0.7c-0.6-0.5-1-1.4-0.9-2.2c0-0.5,0.1-1,0.4-1.5
		c0.2-0.4,0.5-0.7,0.9-0.9c0.4-0.2,0.8-0.4,1.2-0.5c0.4-0.1,0.9-0.2,1.3-0.2l1.2-0.1c0.4,0,0.9-0.1,1.3-0.2c0.3-0.1,0.5-0.2,0.7-0.4
		c0.2-0.2,0.3-0.4,0.3-0.6c0-0.3,0.1-0.6,0.1-0.9c0-0.3-0.1-0.5-0.2-0.8c-0.1-0.2-0.3-0.5-0.5-0.6c-0.3-0.2-0.6-0.4-0.9-0.4
		c-0.4-0.1-0.9-0.2-1.3-0.2c-0.8,0-1.6,0.2-2.2,0.7c-0.6,0.5-0.9,1.3-0.9,2.1h-0.8c0-1,0.4-1.9,1.1-2.5c0.8-0.6,1.8-0.9,2.9-0.8
		c1-0.1,1.9,0.2,2.7,0.7c0.6,0.5,0.9,1.2,0.8,1.9v6c0,0.1,0,0.3,0,0.4c0,0.1,0,0.3,0.1,0.4c0,0.1,0.1,0.2,0.2,0.3
		c0.1,0.1,0.3,0.1,0.4,0.1c0.2,0,0.4,0,0.6-0.1v0.6c-0.2,0.1-0.4,0.1-0.6,0.1c-0.2,0-0.5,0-0.7-0.1c-0.2-0.1-0.3-0.2-0.4-0.3
		c-0.1-0.1-0.2-0.3-0.2-0.5c0-0.2-0.1-0.4-0.1-0.6L91.2,86.5z M91.2,82.7c-0.2,0.2-0.5,0.4-0.8,0.5c-0.4,0.1-0.8,0.1-1.3,0.2
		l-1.3,0.1c-0.4,0-0.7,0.1-1.1,0.2c-0.4,0.1-0.7,0.2-1,0.4c-0.3,0.2-0.5,0.4-0.7,0.7c-0.2,0.4-0.3,0.8-0.3,1.2
		c0,0.6,0.2,1.3,0.7,1.7c0.6,0.4,1.3,0.6,2,0.6c0.7,0,1.4-0.1,2.1-0.5c0.5-0.3,0.9-0.6,1.2-1.1c0.2-0.4,0.4-0.8,0.5-1.2
		c0.1-0.3,0.1-0.5,0.1-0.8V82.7z M95.1,80.5L95.1,80.5c0.2-0.3,0.3-0.7,0.6-0.9c0.3-0.3,0.6-0.6,0.9-0.8c0.4-0.2,0.8-0.4,1.2-0.5
		c0.4-0.1,0.9-0.2,1.3-0.1v0.8c-0.5,0-0.9,0-1.4,0.1c-0.6,0.2-1.1,0.5-1.5,0.9c-0.2,0.2-0.3,0.4-0.5,0.6c-0.1,0.2-0.3,0.4-0.3,0.6
		c-0.1,0.2-0.2,0.5-0.2,0.8c-0.1,0.3-0.1,0.7-0.1,1v5.6h-0.8V78.2h0.8V80.5z M100,83.5v0.1c0,0.6,0.1,1.2,0.2,1.7
		c0.1,0.5,0.4,1,0.7,1.4c0.3,0.4,0.7,0.7,1.2,1c0.5,0.2,1.1,0.4,1.7,0.4c0.9,0,1.8-0.2,2.4-0.8c0.6-0.6,1.1-1.4,1.2-2.3h0.8
		c-0.2,1.1-0.7,2-1.5,2.8c-0.8,0.7-1.9,1-3,1c-0.7,0-1.4-0.1-2-0.4c-0.6-0.3-1-0.6-1.4-1.1c-0.4-0.5-0.7-1.1-0.8-1.7
		c-0.2-0.7-0.3-1.4-0.3-2.1c0-0.7,0.1-1.4,0.3-2.1c0.2-0.6,0.5-1.2,0.9-1.7c0.4-0.5,0.9-0.9,1.4-1.2c0.6-0.3,1.3-0.5,2.1-0.4
		c0.7,0,1.3,0.1,1.9,0.4c0.5,0.3,1,0.6,1.4,1.1c0.4,0.5,0.7,1,0.8,1.6c0.2,0.6,0.3,1.3,0.3,1.9c0,0.1,0,0.1,0,0.2s0,0.2,0,0.2H100z
		 M107.5,82.8c0-0.5-0.1-1.1-0.3-1.6c-0.1-0.5-0.4-0.9-0.7-1.3c-0.3-0.4-0.7-0.7-1.1-0.9c-0.5-0.2-1-0.3-1.5-0.3
		c-0.6,0-1.1,0.1-1.6,0.3c-0.5,0.2-0.9,0.5-1.2,0.9c-0.3,0.4-0.6,0.8-0.7,1.3c-0.2,0.5-0.3,1-0.3,1.6H107.5z M115.8,74.2h1.3
		l5.6,13.3h0l5.5-13.3h1.3v14.3h-0.9V75.3h0l-5.4,13.2h-0.9l-5.5-13.2h0v13.2h-0.9V74.2z M138.6,86.5L138.6,86.5
		c-0.2,0.3-0.3,0.6-0.6,0.9c-0.2,0.3-0.5,0.5-0.8,0.7c-0.3,0.2-0.7,0.4-1.1,0.5c-0.4,0.1-0.9,0.2-1.4,0.2c-0.9,0.1-1.8-0.2-2.5-0.7
		c-0.6-0.5-1-1.4-0.9-2.2c0-0.5,0.1-1,0.4-1.5c0.2-0.4,0.5-0.7,0.9-0.9c0.4-0.2,0.8-0.4,1.2-0.5c0.4-0.1,0.9-0.2,1.3-0.2l1.2-0.1
		c0.4,0,0.9-0.1,1.3-0.2c0.3-0.1,0.5-0.2,0.7-0.4c0.2-0.2,0.3-0.4,0.3-0.6c0-0.3,0.1-0.6,0.1-0.9c0-0.3-0.1-0.5-0.2-0.8
		c-0.1-0.2-0.3-0.5-0.5-0.6c-0.3-0.2-0.6-0.4-0.9-0.4c-0.4-0.1-0.9-0.2-1.3-0.2c-0.8,0-1.6,0.2-2.2,0.7c-0.6,0.5-0.9,1.3-0.9,2.1
		h-0.8c0-1,0.4-1.9,1.1-2.5c0.8-0.6,1.8-0.9,2.9-0.8c1-0.1,1.9,0.2,2.7,0.7c0.6,0.5,0.9,1.2,0.8,1.9v6c0,0.1,0,0.3,0,0.4
		c0,0.1,0,0.3,0.1,0.4c0,0.1,0.1,0.2,0.2,0.3c0.1,0.1,0.3,0.1,0.4,0.1c0.2,0,0.4,0,0.6-0.1v0.6c-0.2,0.1-0.4,0.1-0.6,0.1
		c-0.2,0-0.5,0-0.7-0.1c-0.2-0.1-0.3-0.2-0.4-0.3c-0.1-0.1-0.2-0.3-0.2-0.5c0-0.2-0.1-0.4-0.1-0.6L138.6,86.5z M138.6,82.7
		c-0.2,0.2-0.5,0.4-0.8,0.5c-0.4,0.1-0.8,0.1-1.3,0.2l-1.3,0.1c-0.4,0-0.7,0.1-1.1,0.2c-0.4,0.1-0.7,0.2-1,0.4
		c-0.3,0.2-0.5,0.4-0.7,0.7c-0.2,0.4-0.3,0.8-0.3,1.2c0,0.6,0.2,1.3,0.7,1.7c0.6,0.4,1.3,0.6,2,0.6c0.7,0,1.4-0.1,2.1-0.5
		c0.5-0.3,0.9-0.6,1.2-1.1c0.2-0.4,0.4-0.8,0.5-1.2c0.1-0.3,0.1-0.5,0.1-0.8L138.6,82.7z M142.2,85.1c0,0.4,0.1,0.9,0.3,1.3
		c0.2,0.4,0.4,0.7,0.7,0.9c0.3,0.3,0.7,0.5,1.1,0.6c0.4,0.1,0.9,0.2,1.3,0.2c0.4,0,0.7,0,1.1-0.1c0.4-0.1,0.7-0.2,1.1-0.3
		c0.3-0.2,0.6-0.4,0.8-0.7c0.2-0.3,0.3-0.7,0.3-1.1c0-0.5-0.2-1-0.5-1.3c-0.4-0.3-0.8-0.5-1.3-0.7c-0.6-0.2-1.1-0.3-1.7-0.4
		c-0.6-0.1-1.1-0.2-1.7-0.4c-0.5-0.2-0.9-0.5-1.3-0.8c-0.4-0.4-0.6-1-0.5-1.6c0-0.4,0.1-0.9,0.3-1.3c0.2-0.3,0.5-0.6,0.9-0.8
		c0.4-0.2,0.8-0.4,1.2-0.4c0.4-0.1,0.9-0.1,1.3-0.1c0.5,0,1,0.1,1.5,0.2c0.4,0.1,0.9,0.3,1.2,0.6c0.3,0.3,0.6,0.6,0.8,1
		c0.2,0.5,0.3,1,0.3,1.5h-0.8c0-0.4-0.1-0.8-0.2-1.2c-0.1-0.3-0.4-0.6-0.6-0.8c-0.3-0.2-0.6-0.4-1-0.5c-0.4-0.1-0.8-0.2-1.2-0.2
		c-0.4,0-0.7,0-1.1,0.1c-0.3,0.1-0.7,0.2-0.9,0.3c-0.3,0.2-0.5,0.4-0.7,0.6c-0.2,0.3-0.3,0.6-0.3,0.9c0,0.4,0.1,0.7,0.3,1
		c0.2,0.3,0.5,0.5,0.8,0.6c0.4,0.2,0.7,0.3,1.1,0.4l1.2,0.3c0.5,0.1,1,0.2,1.4,0.3c0.4,0.1,0.8,0.3,1.2,0.5c0.3,0.2,0.6,0.5,0.8,0.8
		c0.2,0.4,0.3,0.9,0.3,1.3c0,0.5-0.1,1-0.4,1.4c-0.3,0.4-0.6,0.7-1,0.9c-0.4,0.2-0.8,0.4-1.3,0.5c-0.5,0.1-0.9,0.1-1.4,0.1
		c-0.6,0-1.1-0.1-1.6-0.2c-0.5-0.1-0.9-0.4-1.3-0.7c-0.4-0.3-0.7-0.7-0.9-1.1c-0.2-0.5-0.3-1-0.3-1.6H142.2z M155.2,78.9H153v7.2
		c0,0.3,0,0.7,0.1,1c0.1,0.2,0.2,0.4,0.4,0.5c0.2,0.1,0.5,0.2,0.7,0.2c0.3,0,0.6,0,0.9,0v0.7c-0.4,0-0.8,0-1.1,0
		c-0.3,0-0.7-0.1-1-0.3c-0.3-0.2-0.5-0.4-0.7-0.8c-0.2-0.4-0.3-0.9-0.2-1.4v-7.2h-1.9v-0.7h1.9V75h0.8v3.2h2.2L155.2,78.9z
		 M156.6,83.5v0.1c0,0.6,0.1,1.2,0.2,1.7c0.1,0.5,0.4,1,0.7,1.4c0.3,0.4,0.7,0.7,1.2,1c0.5,0.2,1.1,0.4,1.6,0.4
		c0.9,0,1.8-0.2,2.4-0.8c0.6-0.6,1.1-1.4,1.2-2.3h0.8c-0.2,1.1-0.7,2-1.5,2.8c-0.8,0.7-1.9,1-3,1c-0.7,0-1.4-0.1-2-0.4
		c-0.6-0.3-1-0.6-1.4-1.1c-0.4-0.5-0.7-1.1-0.9-1.7c-0.2-0.7-0.3-1.4-0.3-2.1c0-0.7,0.1-1.4,0.3-2.1c0.2-0.6,0.5-1.2,0.9-1.7
		c0.4-0.5,0.9-0.9,1.4-1.2c0.6-0.3,1.3-0.5,2.1-0.4c0.7,0,1.3,0.1,1.9,0.4c0.5,0.3,1,0.6,1.4,1.1c0.4,0.5,0.7,1,0.9,1.6
		c0.2,0.6,0.3,1.3,0.3,1.9c0,0.1,0,0.1,0,0.2c0,0.1,0,0.2,0,0.2H156.6z M164.2,82.8c0-0.5-0.1-1.1-0.3-1.6c-0.1-0.5-0.4-0.9-0.7-1.3
		c-0.3-0.4-0.7-0.7-1.1-0.9c-0.5-0.2-1-0.3-1.5-0.3c-0.6,0-1.1,0.1-1.6,0.3c-0.5,0.2-0.9,0.5-1.2,0.9c-0.3,0.4-0.6,0.8-0.7,1.3
		c-0.2,0.5-0.3,1-0.3,1.6H164.2z M167.5,80.5L167.5,80.5c0.2-0.3,0.3-0.7,0.6-0.9c0.3-0.3,0.6-0.6,0.9-0.8c0.4-0.2,0.8-0.4,1.2-0.5
		c0.4-0.1,0.9-0.2,1.4-0.1v0.8c-0.5,0-0.9,0-1.4,0.1c-0.6,0.2-1.1,0.5-1.5,0.9c-0.2,0.2-0.3,0.4-0.5,0.6c-0.1,0.2-0.3,0.4-0.4,0.6
		c-0.1,0.2-0.2,0.5-0.2,0.8c-0.1,0.3-0.1,0.7-0.1,1v5.6h-0.8V78.2h0.8L167.5,80.5z M172.6,85.1c0,0.4,0.1,0.9,0.3,1.3
		c0.2,0.4,0.4,0.7,0.7,0.9c0.3,0.3,0.7,0.5,1.1,0.6c0.4,0.1,0.9,0.2,1.3,0.2c0.4,0,0.7,0,1.1-0.1c0.4-0.1,0.7-0.2,1.1-0.3
		c0.3-0.2,0.6-0.4,0.8-0.7c0.2-0.3,0.3-0.7,0.3-1.1c0-0.5-0.2-1-0.5-1.3c-0.4-0.3-0.8-0.5-1.3-0.7c-0.6-0.2-1.1-0.3-1.7-0.4
		c-0.6-0.1-1.1-0.2-1.7-0.4c-0.5-0.2-0.9-0.5-1.3-0.8c-0.4-0.4-0.6-1-0.5-1.6c0-0.4,0.1-0.9,0.3-1.3c0.2-0.3,0.5-0.6,0.9-0.8
		c0.4-0.2,0.8-0.4,1.2-0.4c0.4-0.1,0.9-0.1,1.3-0.1c0.5,0,1,0.1,1.5,0.2c0.4,0.1,0.9,0.3,1.2,0.6c0.3,0.3,0.6,0.6,0.8,1
		c0.2,0.5,0.3,1,0.3,1.5H179c0-0.4-0.1-0.8-0.2-1.2c-0.1-0.3-0.4-0.6-0.6-0.8c-0.3-0.2-0.6-0.4-1-0.5c-0.4-0.1-0.8-0.2-1.2-0.2
		c-0.4,0-0.7,0-1.1,0.1c-0.3,0.1-0.7,0.2-0.9,0.3c-0.3,0.2-0.5,0.4-0.7,0.6c-0.2,0.3-0.3,0.6-0.3,0.9c0,0.4,0.1,0.7,0.3,1
		c0.2,0.3,0.5,0.5,0.8,0.6c0.4,0.2,0.7,0.3,1.1,0.4l1.2,0.3c0.5,0.1,1,0.2,1.4,0.3c0.4,0.1,0.8,0.3,1.2,0.5c0.3,0.2,0.6,0.5,0.8,0.8
		c0.2,0.4,0.3,0.9,0.3,1.3c0,0.5-0.1,1-0.4,1.4c-0.3,0.4-0.6,0.7-1,0.9c-0.4,0.2-0.8,0.4-1.3,0.5c-0.5,0.1-0.9,0.1-1.4,0.1
		c-0.6,0-1.1-0.1-1.6-0.2c-0.5-0.1-0.9-0.4-1.3-0.7c-0.4-0.3-0.7-0.7-0.9-1.1c-0.2-0.5-0.3-1-0.3-1.6H172.6z"/>
	<path id="Union_1" class="st0" d="M13.5,64.9c-2-0.5-3.9-1.5-5.6-2.7C6.3,61,5,59.4,4.1,57.5c-1-2.1-1.5-4.4-1.4-6.7H8
		c0,1.6,0.3,3.2,1,4.6c0.7,1.3,1.6,2.3,2.7,3.2c1.2,0.9,2.5,1.5,3.9,1.8c1.5,0.4,3.1,0.6,4.7,0.6c1.3,0,2.6-0.1,3.8-0.4
		c1.2-0.2,2.4-0.6,3.5-1.2c2.3-1.2,3.6-3.6,3.4-6.1c0.1-1.3-0.4-2.6-1.2-3.6c-0.8-1-1.9-1.7-3.1-2.2c-1.4-0.6-2.9-1.1-4.3-1.4
		c-1.6-0.4-3.3-0.7-5-1.1s-3.4-0.8-5-1.3c-1.5-0.5-3-1.1-4.4-2C7,41,5.9,39.9,5.2,38.6c-0.8-1.5-1.2-3.1-1.2-4.8
		c0-1.9,0.4-3.8,1.3-5.6c0.8-1.5,2-2.9,3.5-3.9c1.5-1,3.2-1.8,4.9-2.3c1.9-0.5,3.8-0.7,5.7-0.7c2,0,4.1,0.2,6.1,0.8
		c1.8,0.5,3.4,1.3,4.9,2.4c1.4,1.1,2.5,2.6,3.3,4.2c0.9,1.9,1.3,3.9,1.4,6h-5.3c-0.3-3-1.4-5.3-3.3-6.6c-2.1-1.4-4.7-2.2-7.2-2
		c-1.2,0-2.4,0.1-3.5,0.4c-1.1,0.2-2.1,0.6-3.1,1.2c-0.9,0.6-1.6,1.3-2.1,2.2c-0.6,1.1-0.8,2.3-0.8,3.5c-0.1,1.2,0.4,2.3,1.2,3.2
		c0.9,0.9,1.9,1.6,3.1,2c1.4,0.6,2.9,1,4.4,1.3c1.6,0.3,3.3,0.7,5,1.1c1.7,0.4,3.4,0.9,5,1.4c1.5,0.5,3,1.2,4.3,2.2
		c1.3,0.9,2.3,2.1,3.1,3.5c0.8,1.6,1.2,3.4,1.2,5.2c0.1,2-0.5,4-1.5,5.8c-1,1.6-2.3,2.9-3.9,3.9c-1.6,1-3.4,1.8-5.3,2.2
		C21.9,66.1,17.6,66.1,13.5,64.9L13.5,64.9z M157.2,64.7c-1.3-0.5-2.4-1.3-3.3-2.3c-0.9-1-1.5-2.2-1.8-3.5c-0.3-1.5-0.5-3-0.5-4.5
		V34.1h5v20.8c-0.1,1.7,0.5,3.3,1.7,4.5c1.2,1.2,2.9,1.8,4.6,1.7c1.4,0,2.7-0.2,4-0.7c1.1-0.4,2.1-1.1,2.8-2
		c0.8-0.9,1.3-1.9,1.7-3.1c0.4-1.2,0.6-2.5,0.6-3.8V34.1h5v30.7h-4.8v-4.9h-0.1c-0.9,1.8-2.4,3.2-4.1,4.2c-1.8,0.9-3.8,1.4-5.9,1.4
		C160.5,65.6,158.8,65.3,157.2,64.7z M124.4,64.3c-1.8-0.8-3.4-2-4.7-3.4c-1.3-1.5-2.3-3.2-2.9-5.1c-0.6-2-1-4.2-1-6.3
		c0-2.1,0.3-4.3,1-6.3c0.6-1.9,1.6-3.6,2.9-5.1c1.3-1.5,2.9-2.6,4.7-3.4c4.1-1.7,8.7-1.7,12.9,0c1.8,0.8,3.4,1.9,4.7,3.4
		c1.3,1.5,2.3,3.2,2.9,5.1c0.6,2,1,4.2,1,6.3c0,2.1-0.3,4.3-1,6.3c-0.6,1.9-1.6,3.6-2.9,5.1c-1.3,1.5-2.9,2.6-4.7,3.4
		C133.1,65.9,128.5,65.9,124.4,64.3z M127.1,38.6c-1.2,0.5-2.2,1.3-3.1,2.3c-0.9,1.1-1.6,2.3-2.1,3.7c-0.5,1.6-0.8,3.3-0.7,5
		c0,1.7,0.2,3.4,0.7,5c0.4,1.3,1.1,2.6,2.1,3.6c0.8,1,1.9,1.7,3.1,2.2c2.4,1,5.1,1,7.4,0c1.2-0.5,2.2-1.3,3.1-2.2
		c0.9-1.1,1.6-2.3,2-3.6c0.5-1.6,0.8-3.3,0.7-5c0-1.7-0.2-3.4-0.7-5c-0.4-1.3-1.1-2.6-2-3.7c-0.8-1-1.9-1.7-3.1-2.3
		C132.2,37.6,129.5,37.6,127.1,38.6z M63.3,64.4c-0.9-1-1.3-2.3-1.2-3.6c-1.3,1.6-3,2.8-4.8,3.6c-1.9,0.8-3.9,1.1-6,1.1
		c-1.3,0-2.7-0.2-4-0.5c-1.2-0.3-2.3-0.8-3.2-1.5c-0.9-0.7-1.7-1.6-2.2-2.7c-0.6-1.2-0.8-2.6-0.8-4c-0.1-1.5,0.2-2.9,0.9-4.3
		c0.6-1.1,1.4-2,2.3-2.7c1-0.7,2.1-1.2,3.3-1.6c1.3-0.4,2.5-0.7,3.8-0.9c1.4-0.3,2.7-0.5,4-0.6c1.1-0.1,2.2-0.3,3.3-0.6
		c0.8-0.2,1.6-0.6,2.3-1.1c0.6-0.6,0.9-1.4,0.8-2.2c0-0.9-0.2-1.9-0.6-2.7c-0.4-0.6-0.9-1.2-1.6-1.5c-0.7-0.4-1.4-0.6-2.2-0.7
		c-0.8-0.1-1.6-0.2-2.4-0.2c-1.9-0.1-3.7,0.4-5.3,1.2c-1.4,0.8-2.2,2.3-2.3,4.6h-5c0-1.7,0.4-3.3,1.2-4.8c0.7-1.3,1.7-2.4,2.9-3.2
		c1.2-0.8,2.6-1.4,4.1-1.8c1.6-0.4,3.2-0.5,4.9-0.5c1.4,0,2.8,0.1,4.1,0.3c1.3,0.2,2.6,0.6,3.7,1.2c1.1,0.6,2,1.5,2.7,2.6
		c0.7,1.3,1.1,2.8,1,4.3v15.8c0,0.9,0,1.8,0.2,2.6c0.1,0.6,0.6,0.8,1.4,0.8c0.5,0,1.1-0.1,1.5-0.3v3.9c-1.1,0.6-2.4,0.9-3.6,0.8
		C65.2,65.6,64.1,65.2,63.3,64.4z M60,49.8c-0.7,0.2-1.5,0.4-2.3,0.5c-0.8,0.1-1.6,0.3-2.5,0.4c-0.9,0.1-1.8,0.2-2.6,0.4
		c-0.8,0.2-1.6,0.3-2.4,0.6c-0.7,0.2-1.4,0.5-2,1c-0.6,0.4-1,1-1.3,1.6c-0.4,0.7-0.5,1.6-0.5,2.4c0,0.7,0.2,1.5,0.5,2.1
		c0.3,0.6,0.8,1,1.3,1.4c0.6,0.4,1.2,0.6,1.9,0.8c0.7,0.2,1.5,0.2,2.3,0.2c1.5,0,2.9-0.2,4.3-0.7c1.1-0.4,2.1-1,2.9-1.7
		c0.7-0.6,1.3-1.4,1.7-2.3c0.3-0.7,0.5-1.5,0.5-2.3V49C61.3,49.3,60.7,49.6,60,49.8z M184.5,64.8V34.1h4.8v6.5h0.1
		c1-2.2,2.5-4.1,4.5-5.5c2-1.3,4.4-1.8,6.8-1.7v5.3c-1.8,0-3.5,0.2-5.2,0.8c-1.3,0.5-2.5,1.3-3.4,2.4c-0.9,1.2-1.6,2.5-1.9,3.9
		c-0.4,1.7-0.6,3.5-0.6,5.2v13.7H184.5z M104.7,64.8V34.1h5v30.7H104.7z M83.1,64.8L71.7,34.1h5.6L86,59.7h0.1l8.4-25.6h5.3
		L88.5,64.8H83.1z M104.7,30.1V17.6H92.2v-5h12.5V0h5v12.5h12.5v5h-12.5v12.5H104.7z"/>
</g>
</svg>
