<svg xmlns="http://www.w3.org/2000/svg" width="15.45" height="12.139" viewBox="0 0 15.45 12.139">
  <g id="email_icon" transform="translate(0 -152.959)">
    <path id="Path_445" data-name="Path 445" d="M1.483,58.562q.293.207,1.767,1.229t2.259,1.573l.366.263q.28.2.466.328t.448.28a2.6,2.6,0,0,0,.5.233,1.366,1.366,0,0,0,.431.078h.017a1.367,1.367,0,0,0,.431-.078,2.6,2.6,0,0,0,.5-.233q.263-.155.448-.28t.466-.328q.28-.2.366-.263l4.035-2.8a4.1,4.1,0,0,0,1.052-1.06,2.277,2.277,0,0,0,.423-1.3A1.391,1.391,0,0,0,14.07,54.82H1.379a1.231,1.231,0,0,0-1.022.448A1.74,1.74,0,0,0,0,56.389a2.014,2.014,0,0,0,.474,1.177A4.279,4.279,0,0,0,1.483,58.562Z" transform="translate(0 98.139)" fill="#abb0b5"/>
    <path id="Path_446" data-name="Path 446" d="M14.587,185.187q-2.828,1.914-4.293,2.974-.491.362-.8.565a4.92,4.92,0,0,1-.815.414,2.481,2.481,0,0,1-.948.211H7.716a2.482,2.482,0,0,1-.948-.211,4.922,4.922,0,0,1-.815-.414q-.306-.2-.8-.565-1.164-.853-4.285-2.974a4.566,4.566,0,0,1-.871-.75v6.845a1.328,1.328,0,0,0,.405.974,1.328,1.328,0,0,0,.974.405H14.07a1.384,1.384,0,0,0,1.379-1.38v-6.845A4.754,4.754,0,0,1,14.587,185.187Z" transform="translate(0 -27.564)" fill="#abb0b5"/>
  </g>
</svg>
