<svg xmlns="http://www.w3.org/2000/svg" width="9.763" height="18.059" viewBox="0 0 9.763 18.059"><defs><style>.a{fill:#fff;}</style></defs><path class="a" d="M31.473,0,29.131,0A4.113,4.113,0,0,0,24.8,4.444V6.493H22.445a.368.368,0,0,0-.368.368V9.831a.368.368,0,0,0,.368.368H24.8V17.69a.368.368,0,0,0,.368.368H28.24a.368.368,0,0,0,.368-.368V10.2h2.753a.368.368,0,0,0,.368-.368V6.862a.368.368,0,0,0-.368-.368H28.608V4.756c0-.835.2-1.259,1.287-1.259h1.578a.368.368,0,0,0,.368-.368V.372A.368.368,0,0,0,31.473,0Z" transform="translate(-22.077)"/></svg>