<svg fill="#000000" xmlns="http://www.w3.org/2000/svg" viewBox="0 0 128 128" width="64px" height="64px"><path d="M33.5 22H94.5V37H33.5zM88.5 51h-51c-1.7 0-3 1.3-3 3s1.3 3 3 3h51c1.7 0 3-1.3 3-3S90.2 51 88.5 51zM88.5 66h-51c-1.7 0-3 1.3-3 3s1.3 3 3 3h51c1.7 0 3-1.3 3-3S90.2 66 88.5 66zM64 81H37.5c-1.7 0-3 1.3-3 3s1.3 3 3 3H64c1.7 0 3-1.3 3-3S65.7 81 64 81z"/><path d="M33.5,115h61c7.2,0,13-5.8,13-13V22c0-7.2-5.8-13-13-13h-61c-7.2,0-13,5.8-13,13v80C20.5,109.2,26.3,115,33.5,115z M26.5,22c0-3.9,3.1-7,7-7h61c3.9,0,7,3.1,7,7v80c0,3.9-3.1,7-7,7h-61c-3.9,0-7-3.1-7-7V22z"/></svg>