<svg xmlns="http://www.w3.org/2000/svg" width="18.058" height="18.059" viewBox="0 0 18.058 18.059"><defs><style>.a{fill:#fff;}</style></defs><path class="a" d="M2.318,0H15.741a2.263,2.263,0,0,1,2.318,2.318V15.741a2.263,2.263,0,0,1-2.318,2.318H2.318A2.263,2.263,0,0,1,0,15.741V2.318A2.263,2.263,0,0,1,2.318,0ZM13.155,2.006a.815.815,0,0,0-.813.813V4.765a.815.815,0,0,0,.813.813H15.2a.815.815,0,0,0,.813-.813V2.819a.815.815,0,0,0-.813-.813Zm2.863,5.631H14.428a5.282,5.282,0,0,1,.232,1.549,5.528,5.528,0,0,1-5.613,5.439A5.528,5.528,0,0,1,3.434,9.186a5.273,5.273,0,0,1,.232-1.549H2.007v7.628a.72.72,0,0,0,.718.718H15.3a.72.72,0,0,0,.718-.718V7.637ZM9.046,5.476A3.572,3.572,0,0,0,5.419,8.99,3.572,3.572,0,0,0,9.046,12.5,3.572,3.572,0,0,0,12.673,8.99,3.572,3.572,0,0,0,9.046,5.476Z" transform="translate(0)"/></svg>