<svg xmlns="http://www.w3.org/2000/svg" xmlns:xlink="http://www.w3.org/1999/xlink" width="300.459" height="285.173" viewBox="0 0 300.459 285.173">
  <defs>
    <linearGradient id="linear-gradient" x1="0.338" y1="0.027" x2="0.7" y2="0.892" gradientUnits="objectBoundingBox">
      <stop offset="0" stop-color="#473071"/>
      <stop offset="1" stop-color="#382a5f"/>
    </linearGradient>
    <linearGradient id="linear-gradient-2" x1="0.989" y1="0.217" x2="0.105" y2="0.748" gradientUnits="objectBoundingBox">
      <stop offset="0" stop-color="#fdd7db"/>
      <stop offset="1" stop-color="#fbadaf"/>
    </linearGradient>
    <linearGradient id="linear-gradient-3" x1="0.869" y1="0.5" x2="0" y2="0.754" gradientUnits="objectBoundingBox">
      <stop offset="0" stop-color="#0c9bfb"/>
      <stop offset="1" stop-color="#7fa1ff"/>
    </linearGradient>
    <linearGradient id="linear-gradient-4" x1="0.855" y1="0.247" x2="0.291" y2="0.712" xlink:href="#linear-gradient-3"/>
    <linearGradient id="linear-gradient-5" x1="0.945" y1="-0.112" x2="-0.266" y2="1.554" xlink:href="#linear-gradient-3"/>
    <linearGradient id="linear-gradient-6" x1="-0.174" y1="0.5" x2="1.174" y2="0.5" gradientUnits="objectBoundingBox">
      <stop offset="0" stop-color="#f4b073"/>
      <stop offset="1" stop-color="#e2995c"/>
    </linearGradient>
    <linearGradient id="linear-gradient-7" x1="-0.02" y1="0.5" x2="1.02" y2="0.5" gradientUnits="objectBoundingBox">
      <stop offset="0" stop-color="#e09e4f"/>
      <stop offset="1" stop-color="#cd8b3a"/>
    </linearGradient>
    <linearGradient id="linear-gradient-8" x1="-0.175" y1="0.5" x2="1.175" y2="0.5" xlink:href="#linear-gradient-6"/>
  </defs>
  <g id="Left-Graphic" transform="translate(-3452 -2105.544)">
    <g id="Group_422" data-name="Group 422" transform="translate(3651.978 2105.544)">
      <path id="Path_386" data-name="Path 386" d="M246.572,501.008s-113.043,216.193,0,216.193S246.572,501.008,246.572,501.008Z" transform="translate(-196.331 -501.008)" fill="#a8d3f1"/>
      <g id="Group_421" data-name="Group 421" transform="translate(26.866 100.446)">
        <g id="Group_418" data-name="Group 418" transform="translate(21.216)">
          <path id="Path_387" data-name="Path 387" d="M213.319,713.427a2.159,2.159,0,0,1-2.16-2.159V534.145a2.16,2.16,0,0,1,4.319,0V711.268A2.161,2.161,0,0,1,213.319,713.427Z" transform="translate(-211.159 -531.985)" fill="#86bde6"/>
        </g>
        <g id="Group_419" data-name="Group 419" transform="translate(22.196 70.339)">
          <path id="Path_388" data-name="Path 388" d="M213.621,575.642a2.16,2.16,0,0,1-1.527-3.687l17.64-17.643a2.161,2.161,0,0,1,3.058,3.055l-17.64,17.643A2.163,2.163,0,0,1,213.621,575.642Z" transform="translate(-211.461 -553.677)" fill="#86bde6"/>
        </g>
        <g id="Group_420" data-name="Group 420" transform="translate(0 37.524)">
          <path id="Path_389" data-name="Path 389" d="M227.243,568.34a2.145,2.145,0,0,1-1.527-.632l-20.467-20.464a2.16,2.16,0,0,1,3.058-3.051l20.464,20.461a2.16,2.16,0,0,1-1.527,3.687Z" transform="translate(-204.616 -543.557)" fill="#86bde6"/>
        </g>
      </g>
    </g>
    <g id="Group_394" data-name="Group 394" transform="translate(3452 2220.034)">
      <path id="Path_349" data-name="Path 349" d="M405.467,550.584s18.446-27.562,4.226-27c0,0,27.293-61.089,1.58-54.722,0,0,17.333-62.962-11.5-51.843,0,0-6.435-34.5-18.564-29.087s-1.735,35.468-1.735,35.468-22.614,6.394,10.046,46.858c0,0-27.361-4.219,7.636,52.348,0,0-13.648.164-.187,28.528Z" transform="translate(-338.014 -387.352)" fill="#79b0dd" fill-rule="evenodd"/>
      <g id="Group_391" data-name="Group 391" transform="translate(48.055 18.494)">
        <path id="Path_350" data-name="Path 350" d="M392.053,544.337a1.072,1.072,0,0,0,.976-.845c13.431-63.3-12.523-146.359-12.787-147.19a1.068,1.068,0,1,0-2.035.645c.262.827,26.047,83.365,12.733,146.1a1.07,1.07,0,0,0,.823,1.267A1.161,1.161,0,0,0,392.053,544.337Z" transform="translate(-378.157 -395.557)" fill="#a8d3f1"/>
      </g>
      <path id="Path_351" data-name="Path 351" d="M404,513.35c17.619-7.023,11.54-16.648,8.3-17.153s43.114-33.6,17.448-39.169c0,0,28.7-27.045,17.117-38.793-12.39-12.573-34.188,17.164-36.8,32.036,0,0-21.654-14.655-13.754,35.635,0,0-18.627-7.938-4.073,29.4Z" transform="translate(-319.412 -352.419)" fill="#c7e3fb" fill-rule="evenodd"/>
      <path id="Path_352" data-name="Path 352" d="M409.605,525.5s-28.846-29.356-11.137-27.758c0,0-43.957-39.293-18.7-41.444,0,0-37.168-33.435-16.869-46.233,20.15-12.7,30.124,40.305,30.124,40.305s24.079-18.92,18.208,42.142c0,0,17.126-8.051,4.463,32.06Z" transform="translate(-356.836 -361.329)" fill="#a8d3f1" fill-rule="evenodd"/>
      <g id="Group_392" data-name="Group 392" transform="translate(75.066 77.771)">
        <path id="Path_353" data-name="Path 353" d="M391.277,514.765a1.065,1.065,0,0,0,.983-.875,279.929,279.929,0,0,1,8.833-33.744c5.6-17.09,15.286-40.765,29.6-56.507a1.066,1.066,0,0,0-1.578-1.434c-14.576,16.023-24.395,40.008-30.063,57.3a282.4,282.4,0,0,0-8.9,34,1.068,1.068,0,0,0,.863,1.237A.987.987,0,0,0,391.277,514.765Z" transform="translate(-390.141 -421.856)" fill="#a8d3f1"/>
      </g>
      <g id="Group_393" data-name="Group 393" transform="translate(12.914 62.022)">
        <path id="Path_354" data-name="Path 354" d="M405.472,520.513a1.068,1.068,0,0,0,1-1.073c-.115-13.409-7.21-35.006-21.093-64.188-10.307-21.672-20.718-39.67-20.824-39.852a1.068,1.068,0,0,0-1.846,1.073c.412.712,41.362,71.681,41.628,102.986a1.065,1.065,0,0,0,1.075,1.057Z" transform="translate(-362.566 -414.868)" fill="#79b0dd"/>
      </g>
    </g>
    <g id="Group_390" data-name="Group 390" transform="translate(3506.49 2108.908)">
      <g id="Group_385" data-name="Group 385" transform="translate(0 0)">
        <g id="Group_380" data-name="Group 380" transform="translate(0 129.799)">
          <path id="Path_329" data-name="Path 329" d="M452.7,425.647l-6.453,7.713a2.1,2.1,0,0,0,.147,3.053l6.149,5.257a2.1,2.1,0,0,0,1.981.41l.6-.185a2.03,2.03,0,0,1,2.126.606c3.03,3.476,13.558,14.645,20.951,11.044,8.716-4.244-11.584-13.991-12.043-16.631s-.137-3.1-.137-3.1Z" transform="translate(-445.657 -305.809)" fill="#00081a"/>
          <path id="Path_330" data-name="Path 330" d="M452.176,433.682a6.173,6.173,0,0,0,8.556-1.7l-10.664-6.765A6.176,6.176,0,0,0,452.176,433.682Z" transform="translate(-440.271 -306.473)" fill="#fcb2ba"/>
          <path id="Path_331" data-name="Path 331" d="M479.528,433l.421,10.051a2.1,2.1,0,0,0,2.166,2.151l8.085-.251a2.106,2.106,0,0,0,1.743-1.031l.317-.535a2.022,2.022,0,0,1,1.979-.986c4.578.532,19.885,1.7,22.928-5.939,3.588-9.01-17.99-2.546-20.105-4.188s-2.187-2.2-2.187-2.2Z" transform="translate(-393.707 -299.033)" fill="#00081a"/>
          <path id="Path_332" data-name="Path 332" d="M487.5,436.363c3.616-.633,6.081-3.8,5.506-7.077l-13.089,2.293C480.486,434.855,483.881,437,487.5,436.363Z" transform="translate(-393.116 -300.228)" fill="#fcb2ba"/>
          <path id="Path_333" data-name="Path 333" d="M462.725,498.87l-13.87-8.716,30.174-51.4a10.326,10.326,0,0,0,1.292-6.851l-7.548-47.591,19.723-1.974,10.087,15.142,3.182,36.088a10.483,10.483,0,0,1-1.878,6.968Z" transform="translate(-440.751 -372.24)" fill="#37255c"/>
          <path id="Path_334" data-name="Path 334" d="M458.307,382.645c-1.257,14.516,6.19,26.444,19.9,38.832,8.84,7.986,14.86,13.685,18.022,16.728a11.241,11.241,0,0,1,3.266,6.081l12.089,65.707,16.266-2.714-8.032-67.108a22.772,22.772,0,0,0-1.561-5.969L495.135,378.35Z" transform="translate(-426.465 -378.35)" fill="url(#linear-gradient)"/>
        </g>
        <g id="Group_382" data-name="Group 382" transform="translate(20.397)">
          <path id="Path_335" data-name="Path 335" d="M462.584,355.924a36.7,36.7,0,0,1-8.387-11.133s10.148-18.935,32.234-12.289Z" transform="translate(-452.954 -321.039)" fill="#5b6073"/>
          <path id="Path_336" data-name="Path 336" d="M483.141,331.682s2.9,10.715,0,19.72-3.856,9.324-11.252,8.843v9.484l-14.308-3.053s3.319-15.283.912-17.632c-2.035-1.981-3.157-5.777-.8-7.449,3.742-2.653,7.284,1.649,7.713,3.58l1.014-7.6S479.928,330.932,483.141,331.682Z" transform="translate(-449.621 -320.218)" fill="url(#linear-gradient-2)"/>
          <g id="Group_381" data-name="Group 381" transform="translate(28.66 4.123)">
            <path id="Path_337" data-name="Path 337" d="M465.869,337.741a.81.81,0,0,0,.155-.035l22.082-7.477a.76.76,0,0,0-.489-1.439l-22.079,7.474a.761.761,0,0,0,.332,1.477Z" transform="translate(-465.018 -328.749)" fill="#ed6a48"/>
          </g>
          <path id="Path_338" data-name="Path 338" d="M487.2,338.968l-32.4,11.871s-5.584-15.582,8.521-21.643S485.825,331.569,487.2,338.968Z" transform="translate(-453.707 -327.122)" fill="url(#linear-gradient-3)"/>
        </g>
        <path id="Path_339" data-name="Path 339" d="M474.513,360.25l.547,4.923a2.5,2.5,0,0,0,.942,1.695l33.813,26.612a2.522,2.522,0,0,0,2.486.357l5.344-2.138a2.518,2.518,0,0,1,2.43.314l4.619,3.433a3.675,3.675,0,0,1,1.166,4.452l-1.158,2.595a2.5,2.5,0,0,1-2.453,1.482l-8.99-.585a2.513,2.513,0,0,1-1.087-.327L464.31,375.595a6.526,6.526,0,0,1-3.086-4.082l-1.921-7.68a2.507,2.507,0,0,1,1.8-3.038l10.282-2.693A2.509,2.509,0,0,1,474.513,360.25Z" transform="translate(-424.843 -279.735)" fill="#fa7782"/>
        <g id="Group_383" data-name="Group 383" transform="translate(20.396 45.479)">
          <path id="Path_340" data-name="Path 340" d="M503.252,420.688s-5.8-51.037-16.854-64.547-26.244-14.952-31.109-2.693,2.754,27.7,5.835,41.173c5.741,25.112,2.128,34.426,3.17,39.065l39.5-2.916Z" transform="translate(-453.706 -345.071)" fill="url(#linear-gradient-4)"/>
          <path id="Path_341" data-name="Path 341" d="M456.756,351.818l3.056,24.847h3.459l-1.309-22.774Z" transform="translate(-449.029 -334.722)" fill="#ed6a48"/>
          <path id="Path_342" data-name="Path 342" d="M466.88,351.563l3.808,23.994-3.917.307-2.816-24.3Z" transform="translate(-437.988 -335.115)" fill="#ed6a48"/>
        </g>
        <path id="Path_343" data-name="Path 343" d="M474.513,361.284l.547,4.923a2.507,2.507,0,0,0,.942,1.7l33.813,26.609a2.522,2.522,0,0,0,2.486.36l5.344-2.138a2.512,2.512,0,0,1,2.43.314l4.619,3.431a3.676,3.676,0,0,1,1.166,4.452l-1.158,2.595a2.508,2.508,0,0,1-2.453,1.485l-8.99-.588a2.514,2.514,0,0,1-1.087-.327L464.31,376.626a6.513,6.513,0,0,1-3.086-4.082l-1.921-7.68a2.5,2.5,0,0,1,1.8-3.035l10.282-2.7A2.511,2.511,0,0,1,474.513,361.284Z" transform="translate(-424.843 -278.152)" fill="#fcb2ba"/>
        <g id="Group_384" data-name="Group 384" transform="translate(28.123 61.157)">
          <path id="Path_344" data-name="Path 344" d="M477.6,351.259l2.511,23.35-18.953,1.413-4.4-23.345Z" transform="translate(-456.756 -351.259)" fill="url(#linear-gradient-5)"/>
        </g>
      </g>
      <g id="Group_389" data-name="Group 389" transform="translate(89.416 122.064)">
        <g id="Group_386" data-name="Group 386" transform="translate(26.853 46.246)">
          <rect id="Rectangle_459" data-name="Rectangle 459" width="64.457" height="77.799" transform="translate(0 21.658) rotate(-19.634)" fill="url(#linear-gradient-6)"/>
        </g>
        <g id="Group_387" data-name="Group 387" transform="translate(21.36 33.961)">
          <rect id="Rectangle_460" data-name="Rectangle 460" width="55.214" height="16.042" transform="translate(0 18.552) rotate(-19.634)" fill="url(#linear-gradient-7)"/>
        </g>
        <g id="Group_388" data-name="Group 388" transform="translate(9.94 11.707)">
          <rect id="Rectangle_461" data-name="Rectangle 461" width="27.607" height="33.559" transform="translate(0 9.276) rotate(-19.633)" fill="url(#linear-gradient-8)"/>
        </g>
        <path id="Path_345" data-name="Path 345" d="M531.44,516.208l-49.39-138.2a1.376,1.376,0,1,1,2.592-.927l48.475,135.638L601.9,489.067a1.377,1.377,0,0,1,.894,2.6Z" transform="translate(-479.379 -373.958)" fill="#00081a"/>
        <path id="Path_346" data-name="Path 346" d="M523.778,438.969a13.65,13.65,0,1,1-13.649-13.652A13.65,13.65,0,0,1,523.778,438.969Z" transform="translate(-457.128 -298.581)" fill="#00081a"/>
        <path id="Path_347" data-name="Path 347" d="M509.516,433.639a4.766,4.766,0,1,1-4.766-4.768A4.767,4.767,0,0,1,509.516,433.639Z" transform="translate(-451.749 -293.132)" fill="#fdbe42"/>
        <path id="Path_348" data-name="Path 348" d="M481.71,381.1a3.59,3.59,0,1,0,.613-5.04A3.592,3.592,0,0,0,481.71,381.1Z" transform="translate(-480.947 -375.297)" fill="#30353d"/>
      </g>
    </g>
  </g>
</svg>
