<svg id="LOOG" xmlns="http://www.w3.org/2000/svg" width="82.601" height="40.805" viewBox="0 0 82.601 40.805">
  <g id="Group_367" data-name="Group 367" transform="translate(0)">
    <g id="Group_366" data-name="Group 366">
      <g id="Group_363" data-name="Group 363" transform="translate(6.328)">
        <path id="Path_321" data-name="Path 321" d="M215.2,138.089l-7.361-12.856a5.767,5.767,0,0,0-5.14-2.835H163.078a3.975,3.975,0,0,0-3.826,2.9h5.81a1.219,1.219,0,0,1,0,2.437h-6.43a1.1,1.1,0,0,0-.184,2.175h40.185a3.71,3.71,0,0,1,2.979-1.663h2.867a6.427,6.427,0,0,1,5.732,3.182l.012.025,2.253,5.28a1,1,0,0,1-.113.944,1.164,1.164,0,0,1-.952.532h-14.04l-2.082,11.955h3.981a7.279,7.279,0,0,1,6.794-5.48,4.762,4.762,0,0,1,4.885,5.48h7.624S222.938,140.829,215.2,138.089Z" transform="translate(-152.557 -122.398)" fill="#fff"/>
        <path id="Path_322" data-name="Path 322" d="M187.308,148.442a3.363,3.363,0,0,1,.3-.919h-30.9a1.212,1.212,0,0,1-.9,2.029h-9.163a.738.738,0,0,0-.012,1.475h3.988a1.219,1.219,0,0,1,0,2.437h-4.512l0,.009c-.039,0-.077-.006-.117-.006a2.165,2.165,0,1,0,0,4.33H151.9a1.234,1.234,0,0,1,1.218,1.219,1.219,1.219,0,0,1-.854,1.156,1.205,1.205,0,0,1-.365.062h-7.425a.536.536,0,0,0-.044,1.071v0h2.325a1.218,1.218,0,0,1,0,2.437H143.59a1.8,1.8,0,0,0,0,3.6c.036,0,.071,0,.107-.006a.455.455,0,0,0,.047.006H156.51a7.279,7.279,0,0,1,6.794-5.48,4.763,4.763,0,0,1,4.885,5.48h16.078l-.246-.043Z" transform="translate(-141.789 -139.58)" fill="#fff"/>
      </g>
      <g id="Group_364" data-name="Group 364" transform="translate(0 1.034)">
        <path id="Path_323" data-name="Path 323" d="M197.307,196.852a5.72,5.72,0,0,0-5.41,4.607,3.769,3.769,0,0,0,3.805,4.608,5.72,5.72,0,0,0,5.41-4.608A3.769,3.769,0,0,0,197.307,196.852Zm1.875,4.607a3.324,3.324,0,0,1-3.144,2.678,2.19,2.19,0,0,1-2.211-2.678,3.324,3.324,0,0,1,3.144-2.677A2.19,2.19,0,0,1,199.182,201.459Z" transform="translate(-169.681 -174.349)" fill="#fff"/>
        <path id="Path_324" data-name="Path 324" d="M203.1,205.912a2.164,2.164,0,0,0-2.047,1.743,1.426,1.426,0,0,0,1.44,1.743,2.164,2.164,0,0,0,2.047-1.743A1.426,1.426,0,0,0,203.1,205.912Z" transform="translate(-175.971 -180.545)" fill="#fff"/>
        <path id="Path_325" data-name="Path 325" d="M298.5,196.852a5.719,5.719,0,0,0-5.41,4.607,3.769,3.769,0,0,0,3.8,4.608,5.72,5.72,0,0,0,5.41-4.608A3.769,3.769,0,0,0,298.5,196.852Zm1.875,4.607a3.324,3.324,0,0,1-3.144,2.678,2.19,2.19,0,0,1-2.211-2.678,3.323,3.323,0,0,1,3.144-2.677A2.19,2.19,0,0,1,300.379,201.459Z" transform="translate(-238.888 -174.349)" fill="#fff"/>
        <path id="Path_326" data-name="Path 326" d="M304.3,205.912a2.164,2.164,0,0,0-2.047,1.743,1.426,1.426,0,0,0,1.44,1.743,2.164,2.164,0,0,0,2.047-1.743A1.426,1.426,0,0,0,304.3,205.912Z" transform="translate(-245.178 -180.545)" fill="#fff"/>
        <path id="Path_327" data-name="Path 327" d="M136.452,155.268h3.1a.664.664,0,0,0,0-1.327h-3.1a.664.664,0,1,0,0,1.327Z" transform="translate(-131.357 -145.003)" fill="#fff"/>
        <path id="Path_328" data-name="Path 328" d="M131.709,188.66h3.1a.663.663,0,1,0,0-1.327h-3.1a.663.663,0,1,0,0,1.327Z" transform="translate(-128.114 -167.839)" fill="#fff"/>
        <path id="Path_329" data-name="Path 329" d="M146.841,126.995h3.1a.663.663,0,1,0,0-1.327h-3.1a.663.663,0,1,0,0,1.327Z" transform="translate(-138.462 -125.668)" fill="#fff"/>
        <path id="Path_330" data-name="Path 330" d="M125.539,198.893h-3.1a.664.664,0,0,0,0,1.327h3.1a.664.664,0,1,0,0-1.327Z" transform="translate(-121.772 -175.745)" fill="#fff"/>
        <path id="Path_331" data-name="Path 331" d="M297.776,151.455a.661.661,0,0,0,.536-.308.5.5,0,0,0,.07-.474l-2.247-5.267a5.936,5.936,0,0,0-5.291-2.917h-2.867a3.225,3.225,0,0,0-3.045,2.6l-1.11,6.37h2.164a1.1,1.1,0,0,1-.361-1.058l.954-5.479a1.932,1.932,0,0,1,1.828-1.557h2.5a4.066,4.066,0,0,1,3.916,2.539l2.072,5.272a.349.349,0,0,1-.021.283Z" transform="translate(-232.595 -137.172)" fill="#fff"/>
      </g>
      <g id="Group_365" data-name="Group 365" transform="translate(26.65 10.798)">
        <path id="Path_332" data-name="Path 332" d="M224.957,159.789l.621-3.233H206.109s-.686,3.092,4.092,3.233Z" transform="translate(-206.075 -156.556)" fill="#fff"/>
        <path id="Path_333" data-name="Path 333" d="M231.142,181.673a3.824,3.824,0,0,0,3.869,3.045h5.75l.585-3.045Z" transform="translate(-223.218 -173.733)" fill="#fff"/>
        <path id="Path_334" data-name="Path 334" d="M233.934,172.3l.627-3.264H220.211a3.177,3.177,0,0,0,3.307,3.264Z" transform="translate(-215.742 -165.092)" fill="#fff"/>
      </g>
    </g>
  </g>
  <path id="Path_335" data-name="Path 335" d="M202.078,171.2c5.092.437,8.352,1.682,8.79,3.709,1.026,4.745-13.779,11.973-33.069,16.146s-35.759,3.708-36.785-1.037c-.438-2.027,2.015-4.508,6.472-7.01-6.712,3.26-10.584,6.606-10.011,9.254,1.139,5.267,19.421,5.782,40.834,1.151s37.848-12.656,36.709-17.923C214.445,172.846,209.537,171.4,202.078,171.2Z" transform="translate(-132.473 -155.775)" fill="#fff"/>
</svg>
