<svg xmlns="http://www.w3.org/2000/svg" width="14.986" height="19.702" viewBox="0 0 14.986 19.702">
  <g id="man-user" transform="translate(-41.895)">
    <path id="Path_441" data-name="Path 441" d="M108.5,9.636c2.191,0,3.967-2.157,3.967-4.818S111.885,0,108.5,0s-3.967,2.157-3.967,4.818S106.311,9.636,108.5,9.636Z" transform="translate(-59.114)" fill="#abb0b5"/>
    <path id="Path_442" data-name="Path 442" d="M41.9,300.455c0-.162,0-.046,0,0Z" transform="translate(0 -283.463)" fill="#abb0b5"/>
    <path id="Path_443" data-name="Path 443" d="M308.085,301.633c0-.044,0-.308,0,0Z" transform="translate(-251.205 -284.515)" fill="#abb0b5"/>
    <path id="Path_444" data-name="Path 444" d="M56.883,184.532c-.073-4.635-.679-5.956-5.311-6.792a3.254,3.254,0,0,1-4.344,0c-4.582.827-5.224,2.128-5.309,6.641-.007.369-.01.388-.011.345,0,.08,0,.228,0,.487,0,0,1.1,2.223,7.491,2.223s7.491-2.223,7.491-2.223c0-.166,0-.282,0-.36A2.985,2.985,0,0,1,56.883,184.532Z" transform="translate(-0.012 -167.735)" fill="#abb0b5"/>
  </g>
</svg>
