<svg xmlns="http://www.w3.org/2000/svg" width="47.64" height="54.445" viewBox="0 0 47.64 54.445"><defs><style>.a{fill:#e2e5e7;}.b{fill:#b0b7bd;}.c{fill:#cad1d8;}.d{fill:#f15642;}.e{fill:#fff;}</style></defs><g transform="translate(-32)"><path class="a" d="M99.4,0A3.413,3.413,0,0,0,96,3.4v47.64a3.413,3.413,0,0,0,3.4,3.4h34.028a3.413,3.413,0,0,0,3.4-3.4V13.611L123.223,0Z" transform="translate(-57.194)"/><path class="b" d="M355.4,13.611h10.208L352,0V10.208A3.413,3.413,0,0,0,355.4,13.611Z" transform="translate(-285.972)"/><path class="c" d="M394.208,138.208,384,128h10.208Z" transform="translate(-314.569 -114.389)"/><path class="d" d="M72.834,258.716a1.706,1.706,0,0,1-1.7,1.7H33.7a1.706,1.706,0,0,1-1.7-1.7V241.7a1.706,1.706,0,0,1,1.7-1.7H71.133a1.706,1.706,0,0,1,1.7,1.7Z" transform="translate(0 -214.479)"/><g transform="translate(39.416 31.298)"><path class="e" d="M101.744,295.259a.936.936,0,0,1,.924-.939h3.143a3.4,3.4,0,0,1,0,6.8h-2.271v1.8a.854.854,0,0,1-.871.937.917.917,0,0,1-.924-.937Zm1.795.774v3.389h2.271a1.7,1.7,0,0,0,0-3.389Z" transform="translate(-101.744 -294.32)"/><path class="e" d="M188.763,304.886a.851.851,0,0,1-.939-.842v-7.728a.925.925,0,0,1,.939-.844h3.115c6.217,0,6.081,9.414.122,9.414Zm.858-7.753v6.094h2.258c3.673,0,3.837-6.094,0-6.094Z" transform="translate(-178.67 -295.349)"/><path class="e" d="M288.916,297.227v2.163h3.469a1.052,1.052,0,0,1,.98.965.945.945,0,0,1-.98.817h-3.469v2.857a.806.806,0,0,1-.815.842.864.864,0,0,1-.965-.842V296.3a.86.86,0,0,1,.965-.844h4.776a.849.849,0,0,1,.953.844.94.94,0,0,1-.953.926h-3.961Z" transform="translate(-267.422 -295.335)"/></g><path class="c" d="M128.327,417.7H96v1.7h32.327a1.706,1.706,0,0,0,1.7-1.7V416A1.706,1.706,0,0,1,128.327,417.7Z" transform="translate(-57.194 -371.763)"/></g></svg>