<svg xmlns="http://www.w3.org/2000/svg" width="29.473" height="28.249" viewBox="0 0 29.473 28.249">
  <path id="Review-Rating-active-icon" d="M28.306,13.61a2.075,2.075,0,0,0-1.151-3.539L20.15,9.053a.915.915,0,0,1-.689-.5L16.328,2.2a2.075,2.075,0,0,0-3.721,0L9.474,8.552a.916.916,0,0,1-.69.5L1.778,10.071A2.075,2.075,0,0,0,.628,13.61L5.7,18.551a.917.917,0,0,1,.264.811l-1.2,6.978a2.075,2.075,0,0,0,3.01,2.187l6.265-3.294a.917.917,0,0,1,.853,0l6.266,3.294a2.075,2.075,0,0,0,3.01-2.187l-1.2-6.977a.917.917,0,0,1,.264-.811Zm-6.475,5.949,1.2,6.977A.916.916,0,0,1,21.7,27.5l-6.266-3.295a2.076,2.076,0,0,0-1.932,0L7.237,27.5a.917.917,0,0,1-1.33-.966l1.2-6.977a2.075,2.075,0,0,0-.6-1.837l-5.07-4.942a.917.917,0,0,1,.508-1.563L8.95,10.2a2.072,2.072,0,0,0,1.563-1.135l3.133-6.348a.917.917,0,0,1,1.644,0l3.133,6.348A2.071,2.071,0,0,0,19.984,10.2l7.006,1.018a.917.917,0,0,1,.508,1.563l-5.069,4.941A2.074,2.074,0,0,0,21.832,19.559Z" transform="translate(0.269 -0.797)" fill="#2d7cbf" stroke="#2d7cbf" stroke-width="0.5"/>
</svg>
