<svg xmlns="http://www.w3.org/2000/svg" width="199" height="89.238" viewBox="0 0 199 89.238">
  <g id="Saviour-logo" transform="translate(-2.189 0.478)">
    <path id="Path_47" data-name="Path 47" d="M1.26-14.28h.88V-7.8h9.12v-6.48h.88V0h-.88V-7.04H2.14V0H1.26ZM14.82-5.04v.12a6.092,6.092,0,0,0,.24,1.72,4.407,4.407,0,0,0,.71,1.44,3.373,3.373,0,0,0,1.18.98,3.6,3.6,0,0,0,1.65.36,3.512,3.512,0,0,0,2.44-.81,4.241,4.241,0,0,0,1.24-2.25h.76A4.6,4.6,0,0,1,21.57-.72a4.461,4.461,0,0,1-2.99.96,4.533,4.533,0,0,1-1.99-.41,4.05,4.05,0,0,1-1.42-1.12,4.756,4.756,0,0,1-.85-1.68,7.507,7.507,0,0,1-.28-2.09,7.326,7.326,0,0,1,.29-2.07,5.2,5.2,0,0,1,.87-1.74,4.309,4.309,0,0,1,1.45-1.2,4.406,4.406,0,0,1,2.05-.45,4.349,4.349,0,0,1,1.91.4A4,4,0,0,1,22-9.03a4.845,4.845,0,0,1,.85,1.6,6.387,6.387,0,0,1,.29,1.95q0,.1-.01.23t-.01.21Zm7.54-.66a6.155,6.155,0,0,0-.28-1.59,3.937,3.937,0,0,0-.71-1.32,3.531,3.531,0,0,0-1.14-.91,3.334,3.334,0,0,0-1.53-.34,3.577,3.577,0,0,0-1.62.35,3.663,3.663,0,0,0-1.18.92,4.1,4.1,0,0,0-.74,1.33,6.242,6.242,0,0,0-.32,1.56Zm9.36,3.66h-.04a3.171,3.171,0,0,1-.52.87,3.685,3.685,0,0,1-.83.73,4.113,4.113,0,0,1-1.11.5,4.864,4.864,0,0,1-1.36.18,4.013,4.013,0,0,1-2.54-.71,2.618,2.618,0,0,1-.9-2.19,2.713,2.713,0,0,1,.36-1.47,2.73,2.73,0,0,1,.91-.9,3.9,3.9,0,0,1,1.22-.47,11.936,11.936,0,0,1,1.29-.2l1.18-.1a6.967,6.967,0,0,0,1.29-.19,1.648,1.648,0,0,0,.71-.36,1.025,1.025,0,0,0,.3-.59,5.618,5.618,0,0,0,.06-.9,1.9,1.9,0,0,0-.16-.78,1.748,1.748,0,0,0-.5-.64,2.475,2.475,0,0,0-.88-.44,4.7,4.7,0,0,0-1.32-.16,3.463,3.463,0,0,0-2.23.68,2.692,2.692,0,0,0-.93,2.06h-.76a3.365,3.365,0,0,1,1.09-2.55,4.336,4.336,0,0,1,2.87-.85,4.116,4.116,0,0,1,2.71.73,2.4,2.4,0,0,1,.85,1.91V-1.9q0,.22.01.44a1.473,1.473,0,0,0,.07.4.6.6,0,0,0,.2.29.635.635,0,0,0,.4.11,3.647,3.647,0,0,0,.56-.06v.64A2.4,2.4,0,0,1,33.1,0a1.829,1.829,0,0,1-.73-.12.961.961,0,0,1-.41-.32,1.184,1.184,0,0,1-.19-.47,3.246,3.246,0,0,1-.05-.59Zm0-3.8a1.442,1.442,0,0,1-.85.46,10.581,10.581,0,0,1-1.27.18l-1.28.12q-.56.06-1.12.17a3.258,3.258,0,0,0-1.01.37,2.067,2.067,0,0,0-.73.71,2.187,2.187,0,0,0-.28,1.17A1.991,1.991,0,0,0,25.9-.97a3.19,3.19,0,0,0,1.98.55,3.9,3.9,0,0,0,2.06-.47A3.645,3.645,0,0,0,31.1-1.97a3.321,3.321,0,0,0,.51-1.18,5.033,5.033,0,0,0,.11-.77Zm4.12-8.44V0h-.76V-14.28Zm6.2,4.66H39.8v7.18a2.777,2.777,0,0,0,.14.98,1.12,1.12,0,0,0,.43.55,1.528,1.528,0,0,0,.7.23,7.172,7.172,0,0,0,.95.02V0a7.084,7.084,0,0,1-1.13-.01,2.273,2.273,0,0,1-.97-.3,1.758,1.758,0,0,1-.67-.75,2.837,2.837,0,0,1-.21-1.38V-9.62h-1.9v-.66h1.9v-3.2h.76v3.2h2.24Zm2.16-4.66v6.2h.04a3.3,3.3,0,0,1,.57-1.03,3.788,3.788,0,0,1,.86-.77,3.784,3.784,0,0,1,1.07-.48,4.417,4.417,0,0,1,1.18-.16,4.668,4.668,0,0,1,1.53.22,3,3,0,0,1,1.03.58,2.8,2.8,0,0,1,.63.81,3.744,3.744,0,0,1,.33.91,5.363,5.363,0,0,1,.12.89q.02.43.02.75V0h-.76V-6.5q0-.38-.06-.96a2.919,2.919,0,0,0-.35-1.11,2.541,2.541,0,0,0-.88-.91,2.993,2.993,0,0,0-1.63-.38,3.624,3.624,0,0,0-1.56.32,3.379,3.379,0,0,0-1.16.89,3.92,3.92,0,0,0-.73,1.36,5.709,5.709,0,0,0-.25,1.73V0h-.76V-14.28ZM61.56-7.1a2.971,2.971,0,0,0-.35-1.2,2.672,2.672,0,0,0-.75-.86,3.4,3.4,0,0,0-1.07-.52,4.609,4.609,0,0,0-1.31-.18,3.592,3.592,0,0,0-1.7.39,3.749,3.749,0,0,0-1.24,1.04,4.716,4.716,0,0,0-.76,1.48,5.687,5.687,0,0,0-.26,1.71,7.28,7.28,0,0,0,.24,1.92,4.36,4.36,0,0,0,.74,1.53A3.444,3.444,0,0,0,56.34-.78a3.936,3.936,0,0,0,1.74.36,3.6,3.6,0,0,0,1.33-.24,3.563,3.563,0,0,0,1.08-.66,3.414,3.414,0,0,0,.77-1.01,4.106,4.106,0,0,0,.4-1.29h.76a4.82,4.82,0,0,1-.5,1.64,4.017,4.017,0,0,1-.96,1.21,4.165,4.165,0,0,1-1.32.75,4.672,4.672,0,0,1-1.56.26,4.72,4.72,0,0,1-2.15-.45,4.114,4.114,0,0,1-1.46-1.21,5.136,5.136,0,0,1-.84-1.75,7.833,7.833,0,0,1-.27-2.07,6.6,6.6,0,0,1,.31-2.04,4.987,4.987,0,0,1,.91-1.68,4.322,4.322,0,0,1,1.48-1.14,4.636,4.636,0,0,1,2.02-.42,5.657,5.657,0,0,1,1.57.21,4.064,4.064,0,0,1,1.3.63,3.286,3.286,0,0,1,.93,1.07,3.811,3.811,0,0,1,.44,1.51Zm9.46,5.06h-.04a3.171,3.171,0,0,1-.52.87,3.684,3.684,0,0,1-.83.73,4.113,4.113,0,0,1-1.11.5,4.864,4.864,0,0,1-1.36.18,4.013,4.013,0,0,1-2.54-.71,2.618,2.618,0,0,1-.9-2.19,2.713,2.713,0,0,1,.36-1.47,2.73,2.73,0,0,1,.91-.9,3.9,3.9,0,0,1,1.22-.47,11.937,11.937,0,0,1,1.29-.2l1.18-.1a6.967,6.967,0,0,0,1.29-.19,1.648,1.648,0,0,0,.71-.36,1.025,1.025,0,0,0,.3-.59,5.618,5.618,0,0,0,.06-.9,1.9,1.9,0,0,0-.16-.78,1.748,1.748,0,0,0-.5-.64,2.475,2.475,0,0,0-.88-.44,4.7,4.7,0,0,0-1.32-.16,3.463,3.463,0,0,0-2.23.68,2.692,2.692,0,0,0-.93,2.06h-.76a3.365,3.365,0,0,1,1.09-2.55,4.336,4.336,0,0,1,2.87-.85,4.116,4.116,0,0,1,2.71.73,2.4,2.4,0,0,1,.85,1.91V-1.9q0,.22.01.44a1.473,1.473,0,0,0,.07.4.6.6,0,0,0,.2.29.635.635,0,0,0,.4.11,3.647,3.647,0,0,0,.56-.06v.64A2.4,2.4,0,0,1,72.4,0a1.829,1.829,0,0,1-.73-.12.961.961,0,0,1-.41-.32,1.184,1.184,0,0,1-.19-.47,3.246,3.246,0,0,1-.05-.59Zm0-3.8a1.442,1.442,0,0,1-.85.46,10.581,10.581,0,0,1-1.27.18l-1.28.12q-.56.06-1.12.17a3.258,3.258,0,0,0-1.01.37,2.067,2.067,0,0,0-.73.71,2.187,2.187,0,0,0-.28,1.17A1.991,1.991,0,0,0,65.2-.97a3.19,3.19,0,0,0,1.98.55,3.9,3.9,0,0,0,2.06-.47A3.645,3.645,0,0,0,70.4-1.97a3.321,3.321,0,0,0,.51-1.18,5.033,5.033,0,0,0,.11-.77ZM74.96-8h.06a2.505,2.505,0,0,1,.51-.94,3.583,3.583,0,0,1,.9-.76,4.444,4.444,0,0,1,1.18-.49,4.77,4.77,0,0,1,1.35-.15v.76a3.6,3.6,0,0,0-1.37.12,3.324,3.324,0,0,0-1.47.88,7.1,7.1,0,0,0-.49.58,2.812,2.812,0,0,0-.35.62,3.923,3.923,0,0,0-.22.76,6.648,6.648,0,0,0-.1,1V0H74.2V-10.28h.76Zm4.86,2.96v.12a6.092,6.092,0,0,0,.24,1.72,4.407,4.407,0,0,0,.71,1.44,3.373,3.373,0,0,0,1.18.98,3.6,3.6,0,0,0,1.65.36,3.512,3.512,0,0,0,2.44-.81,4.241,4.241,0,0,0,1.24-2.25h.76A4.6,4.6,0,0,1,86.57-.72a4.461,4.461,0,0,1-2.99.96,4.533,4.533,0,0,1-1.99-.41,4.05,4.05,0,0,1-1.42-1.12,4.756,4.756,0,0,1-.85-1.68,7.507,7.507,0,0,1-.28-2.09,7.326,7.326,0,0,1,.29-2.07,5.2,5.2,0,0,1,.87-1.74,4.309,4.309,0,0,1,1.45-1.2,4.406,4.406,0,0,1,2.05-.45,4.349,4.349,0,0,1,1.91.4A4,4,0,0,1,87-9.03a4.845,4.845,0,0,1,.85,1.6,6.386,6.386,0,0,1,.29,1.95q0,.1-.01.23t-.01.21Zm7.54-.66a6.156,6.156,0,0,0-.28-1.59,3.937,3.937,0,0,0-.71-1.32,3.531,3.531,0,0,0-1.14-.91,3.334,3.334,0,0,0-1.53-.34,3.577,3.577,0,0,0-1.62.35,3.663,3.663,0,0,0-1.18.92,4.1,4.1,0,0,0-.74,1.33,6.243,6.243,0,0,0-.32,1.56Zm8.24-8.58h1.26l5.58,13.3h.04L108-14.28h1.26V0h-.88V-13.2h-.04L102.9,0h-.88l-5.5-13.2h-.04V0H95.6ZM118.46-2.04h-.04a3.171,3.171,0,0,1-.52.87,3.684,3.684,0,0,1-.83.73,4.113,4.113,0,0,1-1.11.5,4.864,4.864,0,0,1-1.36.18,4.013,4.013,0,0,1-2.54-.71,2.618,2.618,0,0,1-.9-2.19,2.713,2.713,0,0,1,.36-1.47,2.73,2.73,0,0,1,.91-.9,3.9,3.9,0,0,1,1.22-.47,11.937,11.937,0,0,1,1.29-.2l1.18-.1a6.967,6.967,0,0,0,1.29-.19,1.648,1.648,0,0,0,.71-.36,1.025,1.025,0,0,0,.3-.59,5.618,5.618,0,0,0,.06-.9,1.9,1.9,0,0,0-.16-.78,1.748,1.748,0,0,0-.5-.64,2.475,2.475,0,0,0-.88-.44,4.7,4.7,0,0,0-1.32-.16,3.463,3.463,0,0,0-2.23.68,2.692,2.692,0,0,0-.93,2.06h-.76a3.365,3.365,0,0,1,1.09-2.55,4.336,4.336,0,0,1,2.87-.85,4.116,4.116,0,0,1,2.71.73,2.4,2.4,0,0,1,.85,1.91V-1.9q0,.22.01.44a1.473,1.473,0,0,0,.07.4.6.6,0,0,0,.2.29.635.635,0,0,0,.4.11,3.647,3.647,0,0,0,.56-.06v.64a2.4,2.4,0,0,1-.62.08,1.829,1.829,0,0,1-.73-.12.961.961,0,0,1-.41-.32,1.184,1.184,0,0,1-.19-.47,3.246,3.246,0,0,1-.05-.59Zm0-3.8a1.442,1.442,0,0,1-.85.46,10.581,10.581,0,0,1-1.27.18l-1.28.12q-.56.06-1.12.17a3.258,3.258,0,0,0-1.01.37,2.067,2.067,0,0,0-.73.71,2.187,2.187,0,0,0-.28,1.17,1.991,1.991,0,0,0,.72,1.69,3.19,3.19,0,0,0,1.98.55,3.9,3.9,0,0,0,2.06-.47,3.645,3.645,0,0,0,1.16-1.08,3.321,3.321,0,0,0,.51-1.18,5.033,5.033,0,0,0,.11-.77ZM122-3.42a3.156,3.156,0,0,0,.32,1.27,3.076,3.076,0,0,0,.73.94,3.062,3.062,0,0,0,1.05.59,4.087,4.087,0,0,0,1.3.2,6.88,6.88,0,0,0,1.07-.09,3.71,3.71,0,0,0,1.06-.33,2.2,2.2,0,0,0,.81-.67,1.776,1.776,0,0,0,.32-1.09,1.607,1.607,0,0,0-.52-1.3,3.637,3.637,0,0,0-1.31-.68,13.282,13.282,0,0,0-1.7-.39,8.818,8.818,0,0,1-1.7-.45,3.46,3.46,0,0,1-1.31-.85,2.259,2.259,0,0,1-.52-1.61,2.241,2.241,0,0,1,.34-1.27,2.53,2.53,0,0,1,.87-.81,3.946,3.946,0,0,1,1.19-.43,6.815,6.815,0,0,1,1.32-.13,6.006,6.006,0,0,1,1.5.18,3.242,3.242,0,0,1,1.21.58,2.758,2.758,0,0,1,.8,1.02,3.521,3.521,0,0,1,.29,1.5h-.76a2.854,2.854,0,0,0-.23-1.2,2.089,2.089,0,0,0-.64-.81,2.783,2.783,0,0,0-.97-.46,4.623,4.623,0,0,0-1.2-.15,5.653,5.653,0,0,0-1.05.1,3.033,3.033,0,0,0-.95.34,2.13,2.13,0,0,0-.69.62,1.547,1.547,0,0,0-.27.92,1.567,1.567,0,0,0,.3,1,2.149,2.149,0,0,0,.79.61,5.458,5.458,0,0,0,1.1.37l1.23.28q.76.14,1.43.33a4.03,4.03,0,0,1,1.16.52,2.358,2.358,0,0,1,.77.85,2.767,2.767,0,0,1,.28,1.32,2.343,2.343,0,0,1-.38,1.38,2.931,2.931,0,0,1-.96.87,4.069,4.069,0,0,1-1.29.46,7.709,7.709,0,0,1-1.39.13,5.536,5.536,0,0,1-1.63-.23,3.7,3.7,0,0,1-1.31-.7,3.334,3.334,0,0,1-.88-1.15,3.88,3.88,0,0,1-.34-1.58Zm13.04-6.2H132.8v7.18a2.776,2.776,0,0,0,.14.98,1.12,1.12,0,0,0,.43.55,1.528,1.528,0,0,0,.7.23,7.173,7.173,0,0,0,.95.02V0a7.084,7.084,0,0,1-1.13-.01,2.273,2.273,0,0,1-.97-.3,1.758,1.758,0,0,1-.67-.75,2.837,2.837,0,0,1-.21-1.38V-9.62h-1.9v-.66h1.9v-3.2h.76v3.2h2.24Zm1.42,4.58v.12a6.092,6.092,0,0,0,.24,1.72,4.407,4.407,0,0,0,.71,1.44,3.373,3.373,0,0,0,1.18.98,3.6,3.6,0,0,0,1.65.36,3.512,3.512,0,0,0,2.44-.81,4.241,4.241,0,0,0,1.24-2.25h.76a4.6,4.6,0,0,1-1.47,2.76,4.462,4.462,0,0,1-2.99.96,4.533,4.533,0,0,1-1.99-.41,4.05,4.05,0,0,1-1.42-1.12,4.756,4.756,0,0,1-.85-1.68,7.507,7.507,0,0,1-.28-2.09,7.326,7.326,0,0,1,.29-2.07,5.2,5.2,0,0,1,.87-1.74,4.309,4.309,0,0,1,1.45-1.2,4.406,4.406,0,0,1,2.05-.45,4.349,4.349,0,0,1,1.91.4,4,4,0,0,1,1.39,1.09,4.845,4.845,0,0,1,.85,1.6,6.386,6.386,0,0,1,.29,1.95q0,.1-.01.23t-.01.21ZM144-5.7a6.156,6.156,0,0,0-.28-1.59,3.937,3.937,0,0,0-.71-1.32,3.531,3.531,0,0,0-1.14-.91,3.334,3.334,0,0,0-1.53-.34,3.577,3.577,0,0,0-1.62.35,3.663,3.663,0,0,0-1.18.92,4.1,4.1,0,0,0-.74,1.33,6.243,6.243,0,0,0-.32,1.56ZM147.3-8h.06a2.505,2.505,0,0,1,.51-.94,3.583,3.583,0,0,1,.9-.76,4.444,4.444,0,0,1,1.18-.49,4.77,4.77,0,0,1,1.35-.15v.76a3.6,3.6,0,0,0-1.37.12,3.324,3.324,0,0,0-1.47.88,7.1,7.1,0,0,0-.49.58,2.813,2.813,0,0,0-.35.62,3.922,3.922,0,0,0-.22.76,6.648,6.648,0,0,0-.1,1V0h-.76V-10.28h.76Zm5.16,4.58a3.157,3.157,0,0,0,.32,1.27,3.076,3.076,0,0,0,.73.94,3.062,3.062,0,0,0,1.05.59,4.087,4.087,0,0,0,1.3.2,6.88,6.88,0,0,0,1.07-.09,3.71,3.71,0,0,0,1.06-.33,2.2,2.2,0,0,0,.81-.67,1.776,1.776,0,0,0,.32-1.09,1.607,1.607,0,0,0-.52-1.3,3.637,3.637,0,0,0-1.31-.68,13.282,13.282,0,0,0-1.7-.39,8.817,8.817,0,0,1-1.7-.45,3.46,3.46,0,0,1-1.31-.85,2.259,2.259,0,0,1-.52-1.61,2.241,2.241,0,0,1,.34-1.27,2.53,2.53,0,0,1,.87-.81,3.946,3.946,0,0,1,1.19-.43,6.815,6.815,0,0,1,1.32-.13,6.006,6.006,0,0,1,1.5.18,3.242,3.242,0,0,1,1.21.58,2.758,2.758,0,0,1,.8,1.02,3.52,3.52,0,0,1,.29,1.5h-.76a2.854,2.854,0,0,0-.23-1.2,2.089,2.089,0,0,0-.64-.81,2.783,2.783,0,0,0-.97-.46,4.623,4.623,0,0,0-1.2-.15,5.653,5.653,0,0,0-1.05.1,3.033,3.033,0,0,0-.95.34,2.13,2.13,0,0,0-.69.62,1.547,1.547,0,0,0-.27.92,1.567,1.567,0,0,0,.3,1,2.149,2.149,0,0,0,.79.61,5.459,5.459,0,0,0,1.1.37l1.23.28q.76.14,1.43.33a4.031,4.031,0,0,1,1.16.52,2.358,2.358,0,0,1,.77.85,2.767,2.767,0,0,1,.28,1.32,2.343,2.343,0,0,1-.38,1.38,2.931,2.931,0,0,1-.96.87,4.069,4.069,0,0,1-1.29.46,7.709,7.709,0,0,1-1.39.13,5.536,5.536,0,0,1-1.63-.23,3.7,3.7,0,0,1-1.31-.7,3.334,3.334,0,0,1-.88-1.15,3.88,3.88,0,0,1-.34-1.58Z" transform="translate(20.151 88.52)" fill="#294969"/>
    <path id="Union_1" data-name="Union 1" d="M10.782,64.908A16.348,16.348,0,0,1,5.2,62.175a13.09,13.09,0,0,1-3.8-4.663A14.919,14.919,0,0,1,0,50.829H5.347a9.578,9.578,0,0,0,1.039,4.6,9.451,9.451,0,0,0,2.733,3.179,11.553,11.553,0,0,0,3.92,1.841,18.037,18.037,0,0,0,4.663.594,21.084,21.084,0,0,0,3.832-.356,11.29,11.29,0,0,0,3.475-1.218,6.519,6.519,0,0,0,3.445-6.149A5.323,5.323,0,0,0,27.3,49.76a8.568,8.568,0,0,0-3.059-2.228A23.242,23.242,0,0,0,19.9,46.106q-2.436-.565-4.99-1.1T9.921,43.73a17.28,17.28,0,0,1-4.367-1.99,9.775,9.775,0,0,1-3.089-3.149,9.115,9.115,0,0,1-1.158-4.812,11.236,11.236,0,0,1,1.307-5.554,11.423,11.423,0,0,1,3.475-3.861,15.593,15.593,0,0,1,4.931-2.257,21.762,21.762,0,0,1,5.674-.743,22.652,22.652,0,0,1,6.06.773,13.419,13.419,0,0,1,4.871,2.435A12.193,12.193,0,0,1,30.95,28.76a14.623,14.623,0,0,1,1.366,6.03H26.97q-.475-4.574-3.3-6.624a11.982,11.982,0,0,0-7.218-2.049,17.267,17.267,0,0,0-3.505.356A9.309,9.309,0,0,0,9.891,27.66a6.234,6.234,0,0,0-2.139,2.228,6.887,6.887,0,0,0-.8,3.475,4.422,4.422,0,0,0,1.158,3.178,8.594,8.594,0,0,0,3.089,1.99,25.968,25.968,0,0,0,4.366,1.277q2.436.505,4.99,1.1t4.99,1.4a15.9,15.9,0,0,1,4.336,2.168,10.363,10.363,0,0,1,3.059,3.475,10.672,10.672,0,0,1,1.159,5.2,10.651,10.651,0,0,1-1.515,5.792,12.465,12.465,0,0,1-3.891,3.921,17.46,17.46,0,0,1-5.317,2.227,25.2,25.2,0,0,1-12.594-.178Zm143.733-.238a8.3,8.3,0,0,1-3.268-2.316,8.607,8.607,0,0,1-1.753-3.535,19.035,19.035,0,0,1-.5-4.545v-20.2h5.049V54.869a6.1,6.1,0,0,0,1.664,4.515,6.181,6.181,0,0,0,4.574,1.663,10.3,10.3,0,0,0,4.01-.712,7.527,7.527,0,0,0,2.822-2.02,8.716,8.716,0,0,0,1.693-3.059,12.44,12.44,0,0,0,.565-3.832V34.076h5.049V64.789h-4.753V59.918h-.119a10.463,10.463,0,0,1-4.129,4.218,12.1,12.1,0,0,1-5.851,1.367A13.319,13.319,0,0,1,154.515,64.67Zm-32.822-.416a13.492,13.492,0,0,1-4.663-3.416,14.368,14.368,0,0,1-2.851-5.079,20.169,20.169,0,0,1-.951-6.3,20.452,20.452,0,0,1,.951-6.327,14.33,14.33,0,0,1,2.851-5.108,13.5,13.5,0,0,1,4.663-3.416,17.2,17.2,0,0,1,12.862,0,13.432,13.432,0,0,1,4.693,3.416,14.343,14.343,0,0,1,2.852,5.108,20.472,20.472,0,0,1,.951,6.327,20.188,20.188,0,0,1-.951,6.3,14.382,14.382,0,0,1-2.852,5.079,13.421,13.421,0,0,1-4.693,3.416,17.2,17.2,0,0,1-12.862,0Zm2.733-25.663a8.732,8.732,0,0,0-3.059,2.258,10.7,10.7,0,0,0-2.05,3.653,15.279,15.279,0,0,0-.742,4.96,15.279,15.279,0,0,0,.742,4.96,10.381,10.381,0,0,0,2.05,3.624,8.891,8.891,0,0,0,3.059,2.227,9.312,9.312,0,0,0,7.425,0,8.893,8.893,0,0,0,3.06-2.227,10.391,10.391,0,0,0,2.049-3.624,15.279,15.279,0,0,0,.743-4.96,15.279,15.279,0,0,0-.743-4.96,10.705,10.705,0,0,0-2.049-3.653,8.734,8.734,0,0,0-3.06-2.258,9.312,9.312,0,0,0-7.425,0ZM60.565,64.374a4.883,4.883,0,0,1-1.159-3.624,12.351,12.351,0,0,1-4.841,3.624A15.645,15.645,0,0,1,48.594,65.5a16,16,0,0,1-3.95-.475,8.9,8.9,0,0,1-3.238-1.515,7.387,7.387,0,0,1-2.168-2.673,8.9,8.9,0,0,1-.8-3.95,9.016,9.016,0,0,1,.892-4.277,7.5,7.5,0,0,1,2.346-2.673A11.729,11.729,0,0,1,45,48.363a34.781,34.781,0,0,1,3.832-.921q2.079-.416,3.95-.624a22.009,22.009,0,0,0,3.3-.594A5.484,5.484,0,0,0,58.336,45.1a2.755,2.755,0,0,0,.832-2.168,5.04,5.04,0,0,0-.624-2.673,4.274,4.274,0,0,0-1.6-1.544,6.507,6.507,0,0,0-2.2-.713,16.607,16.607,0,0,0-2.406-.178,10.682,10.682,0,0,0-5.347,1.218q-2.138,1.218-2.316,4.6h-5.05a10.911,10.911,0,0,1,1.188-4.812,9.013,9.013,0,0,1,2.852-3.179,11.949,11.949,0,0,1,4.1-1.752,21.582,21.582,0,0,1,4.872-.535,28.769,28.769,0,0,1,4.129.3,10.8,10.8,0,0,1,3.713,1.218,7.116,7.116,0,0,1,2.673,2.584,8.267,8.267,0,0,1,1.01,4.336V57.6a11.855,11.855,0,0,0,.208,2.614q.208.831,1.4.831a4.614,4.614,0,0,0,1.544-.3v3.92a6.911,6.911,0,0,1-3.624.832A4.278,4.278,0,0,1,60.565,64.374ZM57.327,49.76q-1.07.3-2.257.5t-2.525.356q-1.337.149-2.584.387a20.842,20.842,0,0,0-2.376.594,6.5,6.5,0,0,0-1.961.98,4.681,4.681,0,0,0-1.336,1.574,5.024,5.024,0,0,0-.505,2.376,4.1,4.1,0,0,0,.505,2.109,4.2,4.2,0,0,0,1.307,1.4,5.483,5.483,0,0,0,1.871.772,10.385,10.385,0,0,0,2.257.237A11.978,11.978,0,0,0,54,60.364a8.991,8.991,0,0,0,2.911-1.723,6.8,6.8,0,0,0,1.664-2.257,5.712,5.712,0,0,0,.535-2.287V48.928A5.317,5.317,0,0,1,57.327,49.76ZM181.842,64.789V34.076h4.753v6.476h.119a13.673,13.673,0,0,1,4.515-5.525A11.345,11.345,0,0,1,198,33.364V38.71a14.29,14.29,0,0,0-5.168.831,8.153,8.153,0,0,0-3.445,2.436,10.074,10.074,0,0,0-1.9,3.921,21.1,21.1,0,0,0-.594,5.228V64.789Zm-79.841,0V34.076h5.049V64.789Zm-21.565,0L69.029,34.076h5.644l8.614,25.6h.119l8.376-25.6H97.07L85.842,64.789ZM102,30.095V17.572H89.478V12.523H102V0h5.049V12.523h12.523v5.049H107.05V30.095Z" transform="translate(2.689 0.022)" fill="#294969" stroke="rgba(0,0,0,0)" stroke-miterlimit="10" stroke-width="1"/>
  </g>
</svg>
