<svg xmlns="http://www.w3.org/2000/svg" width="20.296" height="16.495" viewBox="0 0 20.296 16.495"><defs><style>.a{fill:#fff;}</style></defs><path class="a" d="M134.023,145.73q.012.268.012.538a11.767,11.767,0,0,1-11.848,11.848h0a11.787,11.787,0,0,1-6.383-1.871,8.468,8.468,0,0,0,.993.058,8.355,8.355,0,0,0,5.172-1.782,4.169,4.169,0,0,1-3.89-2.892,4.15,4.15,0,0,0,1.881-.071,4.165,4.165,0,0,1-3.341-4.082c0-.019,0-.036,0-.053a4.135,4.135,0,0,0,1.886.521,4.168,4.168,0,0,1-1.289-5.559,11.822,11.822,0,0,0,8.583,4.351,4.166,4.166,0,0,1,7.1-3.8,8.351,8.351,0,0,0,2.644-1.011,4.18,4.18,0,0,1-1.831,2.3,8.305,8.305,0,0,0,2.391-.656A8.464,8.464,0,0,1,134.023,145.73Zm0,0" transform="translate(-115.805 -141.621)"/></svg>